<?xml version="1.0" encoding="utf-8"?>
<!-- Generator: Adobe Illustrator 27.1.0, SVG Export Plug-In . SVG Version: 6.00 Build 0)  -->
<svg version="1.1" id="Capa_1" xmlns="http://www.w3.org/2000/svg" xmlns:xlink="http://www.w3.org/1999/xlink" x="0px" y="0px"
	 viewBox="0 0 199.3 240.3" style="enable-background:new 0 0 199.3 240.3;" xml:space="preserve">
<style type="text/css">
	.st0{fill:#1D1D1B;}
</style>
<g>
	<path class="st0" d="M137.8,62.6c1.4,0,2.7-0.2,4-0.5V50.4c-1.1-0.9-2.5-1.5-4-1.5c-2.5,0-3.9,1.5-3.9,3.9v5.8
		C133.8,61.2,135.3,62.6,137.8,62.6z"/>
	<path class="st0" d="M86.1,96.5v5.8c0,2.5,1.5,3.9,3.9,3.9c1.4,0,2.7-0.2,4-0.5V94c-1.1-0.9-2.5-1.5-4-1.5
		C87.6,92.5,86.1,94,86.1,96.5z"/>
	<path class="st0" d="M56.1,48.9c-2.6,0-3.9,1.5-3.9,5h7.9C60.1,50.5,58.7,48.9,56.1,48.9z"/>
	<path class="st0" d="M64.4,103.5c0,0.7,0.2,2.8,3.7,2.8c1.4,0,2.9-0.2,4.2-0.5v-4.8h-4.2C64.6,100.9,64.4,102.8,64.4,103.5z"/>
	<path class="st0" d="M0,0.1v152.8l44.3,0.3v86.9l43.1-87.2h111.9V0.1H0z M109.9,63.6l9.9-25c0.3-0.8,1.2-1.3,2-1.3
		c1.2,0,2.1,1.1,2.1,2.1c0,0.3,0,0.5-0.2,0.8l-9.9,25c-0.3,0.8-1.2,1.3-2,1.3c-1.1,0-2.1-1-2.1-2.1
		C109.7,64.1,109.7,63.9,109.9,63.6z M70.2,63.6l9.9-25c0.3-0.8,1.2-1.3,2-1.3c1.2,0,2.1,1.1,2.1,2.1c0,0.3,0,0.5-0.2,0.8l-9.9,25
		c-0.3,0.8-1.2,1.3-2,1.3c-1.1,0-2.1-1-2.1-2.1C70.1,64.1,70.1,63.9,70.2,63.6z M55.2,108c0,1.2-0.9,2.1-2.1,2.1
		c-1.2,0-2.1-0.9-2.1-2.1h0V96c0-1.9-1.6-3.5-3.5-3.5c-1.3,0-2.5,0.4-3.5,1.1V108c0,1.2-0.9,2.1-2.1,2.1c-1.1,0-2.1-0.9-2.1-2.1
		V95.5c0-2.3-1.5-3-3.3-3c-1.5,0-2.3,0.2-3.6,0.6V108c0,1.2-0.9,2.1-2.1,2.1c-1.2,0-2.1-0.9-2.1-2.1V92.3c0-1.1,0.7-2.1,1.7-2.5
		c2.1-0.8,4.2-1.2,6.5-1.2c2,0,3.6,0.6,4.9,1.7c1.7-1.1,3.7-1.7,5.7-1.7c4.4,0,7.7,3.3,7.7,7.7V108z M50.2,64.2
		c-1.5-1.5-2.2-3.5-2.2-5.9v-5.1c0-2.3,0.8-4.4,2.2-5.8c1.5-1.5,3.5-2.3,5.9-2.3c2.4,0,4.4,0.8,5.9,2.3c1.5,1.5,2.3,3.5,2.3,5.8v1.9
		c0,1.5-1.2,2.6-2.6,2.6v0h-9.4c0,1.7,0.3,2.8,0.8,3.5c0.7,0.9,1.7,1.4,3.1,1.4c1.5,0,3-0.4,4.4-1c0.3-0.1,0.6-0.2,0.8-0.2
		c1,0,2,0.9,2,1.9c0,0.8-0.3,1.5-1.1,1.8c-2,0.9-4,1.4-6.2,1.4C53.7,66.5,51.7,65.7,50.2,64.2z M76.5,106.5c0,1.1-0.7,2.1-1.8,2.5
		c-2,0.7-4.3,1.1-6.6,1.1c-2.5,0-4.4-0.6-5.8-1.8c-1.4-1.2-2.1-2.8-2.1-4.8c0-2,0.7-3.5,2.1-4.7c1.4-1.2,3.3-1.8,5.8-1.8h4.2v-1.4
		c0-1.7-1.2-3-3.4-3c-1.9,0-3,0.2-4.4,1.1c-0.3,0.2-0.8,0.4-1.1,0.4c-1.1,0-2-0.8-2-1.8c0-0.7,0.3-1.5,1-1.9c2.2-1.3,4.1-1.6,7-1.6
		c4.5,0,7,3.3,7,6.9V106.5z M98.2,106.5c0,1.1-0.7,2.1-1.8,2.5c-2,0.7-4.2,1.1-6.4,1.1c-2.3,0-4.4-0.8-5.9-2.3
		c-1.5-1.5-2.2-3.5-2.2-5.9h0v-5.1c0-2.3,0.7-4.4,2.2-5.9c1.5-1.5,3.6-2.2,5.9-2.2c1.4,0,2.9,0.5,4,1v-6.8c0-1.2,0.9-2.1,2.1-2.1
		c1.2,0,2.1,0.9,2.1,2.1V106.5z M96.8,66.5c-2.4,0-4.3-0.4-5.8-1.1c-0.8-0.4-1.3-1.1-1.3-1.9c0-1,0.9-2,2-2c0.3,0,0.7,0.1,0.9,0.2
		c1.1,0.6,2.4,0.9,4.2,0.9c2,0,3-0.7,3-2.1c0-1.5-1.2-2-2.7-2.5l-3.3-1.2c-2.2-0.8-3.9-2.5-3.9-5.5c0-3.6,3-6.1,7-6.1
		c2.8,0,4.2,0.4,5.5,1c0.8,0.3,1.3,1,1.3,1.9c0,1-0.8,1.9-1.9,1.9c-0.3,0-0.7-0.1-1-0.2c-1-0.5-2.7-0.8-4-0.8
		c-1.7,0-2.8,0.8-2.8,2.2c0,1.1,0.8,1.7,1.7,2l4,1.3c2.7,0.9,4.3,2.7,4.3,5.7C104,63.7,101.1,66.5,96.8,66.5z M113.3,93
		c-0.2,0-0.4,0-0.7-0.1c-0.6-0.2-1.4-0.3-2-0.3c-1,0-1.9,0.8-1.9,1.9V108c0,1.2-0.9,2.1-2.1,2.1c-1.2,0-2.1-0.9-2.1-2.1h0V94.7
		c0-3.4,2.6-6,6-6c1,0,2,0.1,3,0.3c1,0.2,1.7,1,1.7,2C115.3,92.1,114.5,93,113.3,93z M124.1,108c0,1.2-0.9,2.1-2.1,2.1
		c-1.1,0-2.1-0.9-2.1-2.1V90.8c0-1.2,1-2.1,2.1-2.1c1.2,0,2.1,0.9,2.1,2.1V108z M122,85.5c-1.3,0-2.3-1-2.3-2.4c0-1.3,1-2.4,2.3-2.4
		c1.3,0,2.4,1.1,2.4,2.4C124.3,84.5,123.3,85.5,122,85.5z M129.7,53.2c0-2.3,0.7-4.4,2.2-5.9c1.5-1.5,3.6-2.2,5.9-2.2
		c1.4,0,2.9,0.5,4,1v-6.8c0-1.2,0.9-2.1,2.1-2.1c1.2,0,2.1,0.9,2.1,2.1v23.6c0,1.1-0.7,2.1-1.8,2.5c-2,0.7-4.2,1-6.4,1
		c-2.3,0-4.4-0.8-5.9-2.3c-1.5-1.5-2.2-3.5-2.2-5.9V53.2z M146.2,106.5c0,1.1-0.7,2.1-1.8,2.5c-2,0.7-4.2,1.1-6.4,1.1
		c-2.4,0-4.4-0.8-5.9-2.3c-1.5-1.5-2.2-3.5-2.2-5.9h0v-5.1c0-2.3,0.7-4.4,2.2-5.9c1.5-1.5,3.6-2.2,5.9-2.2c1.4,0,2.9,0.5,4,1v-6.8
		c0-1.2,0.9-2.1,2.1-2.1c1.2,0,2.1,0.9,2.1,2.1V106.5z M166.4,40.1l-9.9,25c-0.3,0.8-1.2,1.3-2,1.3c-1.1,0-2.1-1-2.1-2.1
		c0-0.3,0-0.5,0.2-0.8l9.9-25c0.3-0.8,1.2-1.3,2-1.3c1.2,0,2.1,1.1,2.1,2.1C166.6,39.6,166.5,39.8,166.4,40.1z"/>
	<path class="st0" d="M134.1,96.5v5.8c0,2.5,1.5,3.9,3.9,3.9c1.4,0,2.7-0.2,4-0.5V94c-1.1-0.9-2.5-1.5-4-1.5
		C135.6,92.5,134.1,94,134.1,96.5z"/>
</g>
</svg>
