<?xml version="1.0" encoding="utf-8"?>
<!-- Generator: Adobe Illustrator 24.0.1, SVG Export Plug-In . SVG Version: 6.00 Build 0)  -->
<svg version="1.1" id="Capa_1" xmlns="http://www.w3.org/2000/svg" xmlns:xlink="http://www.w3.org/1999/xlink" x="0px" y="0px"
	 viewBox="0 0 372.42 104.75" style="enable-background:new 0 0 372.42 104.75;" xml:space="preserve">
<style type="text/css">
	.st0{fill:#FFFFFF;}
	.st1{fill:none;stroke:#FFFFFF;stroke-width:0.484;}
	.st2{fill:#E30613;}
</style>
<g>
	<rect x="307.32" y="3.87" class="st2" width="59.61" height="59.61"/>
	<g>
		<polygon class="st0" points="318.52,23.94 317.31,27.7 313.37,27.75 316.57,30.04 315.42,33.71 318.52,31.45 321.66,33.66 
			320.46,29.99 323.61,27.66 319.74,27.7 		"/>
		<polygon class="st1" points="318.52,23.94 317.31,27.7 313.37,27.75 316.57,30.04 315.42,33.71 318.52,31.45 321.66,33.66 
			320.46,29.99 323.61,27.66 319.74,27.7 		"/>
		<polygon class="st0" points="330.93,23.94 329.73,27.7 325.78,27.75 328.98,30.04 327.83,33.71 330.93,31.45 334.08,33.66 
			332.87,29.99 336.02,27.66 332.15,27.7 		"/>
		<polygon class="st1" points="330.93,23.94 329.73,27.7 325.78,27.75 328.98,30.04 327.83,33.71 330.93,31.45 334.08,33.66 
			332.87,29.99 336.02,27.66 332.15,27.7 		"/>
		<polygon class="st0" points="343.39,23.94 342.19,27.7 338.25,27.75 341.45,30.04 340.29,33.71 343.39,31.45 346.54,33.66 
			345.34,29.99 348.49,27.66 344.62,27.7 		"/>
		<polygon class="st1" points="343.39,23.94 342.19,27.7 338.25,27.75 341.45,30.04 340.29,33.71 343.39,31.45 346.54,33.66 
			345.34,29.99 348.49,27.66 344.62,27.7 		"/>
		<polygon class="st0" points="337.12,32.52 335.92,36.28 331.98,36.32 335.18,38.61 334.02,42.28 337.12,40.03 340.27,42.24 
			339.07,38.56 342.22,36.23 338.35,36.28 		"/>
		<polygon class="st1" points="337.12,32.52 335.92,36.28 331.98,36.32 335.18,38.61 334.02,42.28 337.12,40.03 340.27,42.24 
			339.07,38.56 342.22,36.23 338.35,36.28 		"/>
		<polygon class="st0" points="324.69,32.52 323.49,36.28 319.54,36.32 322.74,38.61 321.59,42.28 324.69,40.03 327.84,42.24 
			326.64,38.56 329.78,36.23 325.91,36.28 		"/>
		<polygon class="st1" points="324.69,32.52 323.49,36.28 319.54,36.32 322.74,38.61 321.59,42.28 324.69,40.03 327.84,42.24 
			326.64,38.56 329.78,36.23 325.91,36.28 		"/>
		<polygon class="st0" points="349.61,32.52 348.41,36.28 344.47,36.32 347.66,38.61 346.51,42.28 349.61,40.03 352.76,42.24 
			351.56,38.56 354.7,36.23 350.83,36.28 		"/>
		<polygon class="st1" points="349.61,32.52 348.41,36.28 344.47,36.32 347.66,38.61 346.51,42.28 349.61,40.03 352.76,42.24 
			351.56,38.56 354.7,36.23 350.83,36.28 		"/>
		<polygon class="st0" points="355.84,23.94 354.64,27.7 350.7,27.75 353.9,30.04 352.74,33.71 355.84,31.45 358.99,33.66 
			357.79,29.99 360.94,27.66 357.07,27.7 		"/>
		<polygon class="st1" points="355.84,23.94 354.64,27.7 350.7,27.75 353.9,30.04 352.74,33.71 355.84,31.45 358.99,33.66 
			357.79,29.99 360.94,27.66 357.07,27.7 		"/>
	</g>
</g>
<g>
	<path class="st0" d="M139.2,42.61c-0.07-0.27-0.17-0.52-0.29-0.75s-0.28-0.43-0.47-0.59c-0.19-0.17-0.42-0.3-0.68-0.39
		c-0.26-0.09-0.56-0.14-0.9-0.14c-0.5,0-0.94,0.1-1.3,0.3s-0.66,0.47-0.89,0.81c-0.23,0.34-0.4,0.72-0.51,1.16
		c-0.11,0.43-0.17,0.87-0.17,1.32c0,0.45,0.06,0.89,0.17,1.32c0.11,0.43,0.28,0.82,0.51,1.16c0.23,0.34,0.53,0.61,0.89,0.81
		c0.37,0.2,0.8,0.3,1.3,0.3c0.37,0,0.69-0.06,0.98-0.19c0.28-0.13,0.52-0.3,0.73-0.53c0.2-0.22,0.36-0.49,0.48-0.79
		c0.11-0.3,0.19-0.62,0.22-0.96h1.61c-0.04,0.56-0.16,1.08-0.36,1.54s-0.49,0.87-0.84,1.21c-0.35,0.34-0.77,0.6-1.24,0.79
		c-0.47,0.18-1,0.28-1.57,0.28c-0.7,0-1.34-0.13-1.89-0.39s-1.03-0.61-1.42-1.06c-0.39-0.45-0.68-0.97-0.89-1.57
		c-0.21-0.6-0.31-1.24-0.31-1.91c0-0.67,0.1-1.3,0.31-1.9c0.21-0.6,0.5-1.12,0.89-1.57c0.39-0.45,0.86-0.81,1.42-1.07
		c0.56-0.26,1.19-0.4,1.89-0.4c0.53,0,1.02,0.07,1.49,0.22c0.47,0.15,0.88,0.36,1.23,0.63s0.64,0.61,0.86,1.01
		c0.22,0.4,0.36,0.85,0.41,1.36H139.2z"/>
	<path class="st0" d="M146.38,39.39c0.7,0,1.33,0.13,1.89,0.4c0.56,0.26,1.03,0.62,1.42,1.07c0.39,0.45,0.68,0.97,0.89,1.57
		c0.21,0.6,0.31,1.23,0.31,1.9c0,0.68-0.1,1.32-0.31,1.91c-0.21,0.6-0.5,1.12-0.89,1.57c-0.39,0.45-0.86,0.8-1.42,1.06
		s-1.19,0.39-1.89,0.39c-0.7,0-1.34-0.13-1.89-0.39s-1.03-0.61-1.42-1.06c-0.39-0.45-0.68-0.97-0.89-1.57
		c-0.21-0.6-0.31-1.24-0.31-1.91c0-0.67,0.1-1.3,0.31-1.9c0.21-0.6,0.5-1.12,0.89-1.57c0.39-0.45,0.86-0.81,1.42-1.07
		C145.05,39.52,145.68,39.39,146.38,39.39z M146.38,40.74c-0.5,0-0.94,0.1-1.3,0.3s-0.66,0.47-0.89,0.81
		c-0.23,0.34-0.4,0.72-0.51,1.16c-0.11,0.43-0.17,0.87-0.17,1.32c0,0.45,0.06,0.89,0.17,1.32c0.11,0.43,0.28,0.82,0.51,1.16
		c0.23,0.34,0.53,0.61,0.89,0.81c0.37,0.2,0.8,0.3,1.3,0.3c0.5,0,0.93-0.1,1.3-0.3c0.37-0.2,0.66-0.47,0.89-0.81
		c0.23-0.34,0.4-0.72,0.51-1.16c0.11-0.43,0.17-0.87,0.17-1.32c0-0.45-0.06-0.89-0.17-1.32c-0.11-0.43-0.28-0.82-0.51-1.16
		c-0.23-0.34-0.53-0.61-0.89-0.81S146.88,40.74,146.38,40.74z"/>
	<path class="st0" d="M152.34,39.62h1.74l4.3,6.94h0.03v-6.94h1.57v9.42h-1.74l-4.29-6.93h-0.04v6.93h-1.57V39.62z"/>
	<path class="st0" d="M163.01,45.9c0,0.36,0.06,0.67,0.19,0.92c0.12,0.26,0.29,0.46,0.51,0.63c0.22,0.16,0.47,0.28,0.76,0.36
		c0.29,0.08,0.6,0.11,0.93,0.11c0.36,0,0.67-0.04,0.92-0.12c0.25-0.08,0.46-0.19,0.62-0.32c0.16-0.13,0.27-0.28,0.34-0.46
		s0.11-0.34,0.11-0.52c0-0.36-0.08-0.63-0.24-0.8c-0.16-0.17-0.34-0.29-0.54-0.36c-0.33-0.12-0.72-0.24-1.17-0.35
		c-0.44-0.11-0.99-0.25-1.64-0.43c-0.4-0.11-0.74-0.24-1.01-0.42c-0.27-0.17-0.48-0.36-0.64-0.57c-0.16-0.21-0.27-0.44-0.34-0.67
		c-0.07-0.24-0.1-0.48-0.1-0.73c0-0.48,0.1-0.89,0.3-1.23s0.46-0.64,0.79-0.86c0.33-0.23,0.7-0.4,1.11-0.51
		c0.41-0.11,0.83-0.17,1.25-0.17c0.49,0,0.96,0.06,1.39,0.19c0.44,0.13,0.82,0.32,1.15,0.57c0.33,0.26,0.59,0.57,0.79,0.94
		s0.29,0.81,0.29,1.3h-1.65c-0.04-0.61-0.25-1.04-0.62-1.29c-0.37-0.25-0.84-0.38-1.41-0.38c-0.19,0-0.39,0.02-0.59,0.06
		c-0.2,0.04-0.39,0.11-0.55,0.2c-0.17,0.09-0.31,0.22-0.42,0.38c-0.11,0.16-0.17,0.36-0.17,0.59c0,0.33,0.1,0.6,0.31,0.79
		c0.21,0.19,0.48,0.33,0.81,0.43c0.04,0.01,0.17,0.05,0.42,0.11c0.24,0.07,0.51,0.14,0.81,0.22c0.3,0.08,0.59,0.16,0.88,0.23
		c0.29,0.08,0.49,0.13,0.61,0.17c0.31,0.1,0.58,0.23,0.8,0.4c0.23,0.17,0.42,0.36,0.57,0.57c0.15,0.22,0.27,0.45,0.34,0.69
		c0.07,0.25,0.11,0.49,0.11,0.74c0,0.53-0.11,0.98-0.32,1.35c-0.21,0.38-0.5,0.68-0.85,0.92c-0.35,0.24-0.75,0.41-1.2,0.52
		c-0.45,0.11-0.91,0.17-1.37,0.17c-0.54,0-1.04-0.07-1.52-0.2c-0.47-0.13-0.89-0.33-1.24-0.61c-0.35-0.27-0.63-0.62-0.84-1.05
		c-0.21-0.43-0.32-0.93-0.33-1.51H163.01z"/>
	<path class="st0" d="M170.49,39.62h6.79v1.43h-5.13v2.47h4.75v1.35h-4.75v2.76h5.23v1.43h-6.88V39.62z"/>
	<path class="st0" d="M183.88,46.01c0,0.41-0.04,0.81-0.11,1.2c-0.07,0.39-0.21,0.74-0.43,1.04c-0.22,0.31-0.53,0.55-0.94,0.74
		s-0.95,0.28-1.63,0.28c-0.5,0-0.93-0.08-1.28-0.23c-0.35-0.15-0.64-0.37-0.87-0.63c-0.23-0.27-0.4-0.59-0.5-0.96
		c-0.11-0.37-0.16-0.77-0.16-1.2v-0.5h1.65v0.49c0,0.54,0.09,0.95,0.27,1.25c0.18,0.29,0.52,0.44,1.02,0.44
		c0.26,0,0.48-0.04,0.65-0.12c0.17-0.08,0.31-0.2,0.41-0.35c0.1-0.15,0.17-0.34,0.21-0.57c0.04-0.23,0.05-0.49,0.05-0.78v-6.48h1.65
		V46.01z"/>
	<path class="st0" d="M185.89,39.62h6.78v1.43h-5.13v2.47h4.75v1.35h-4.75v2.76h5.23v1.43h-6.88V39.62z"/>
	<path class="st0" d="M194.21,39.62h4.5c1.04,0,1.82,0.22,2.34,0.67c0.52,0.45,0.78,1.07,0.78,1.88c0,0.45-0.07,0.82-0.2,1.12
		c-0.13,0.29-0.29,0.53-0.46,0.71c-0.18,0.18-0.35,0.31-0.52,0.39c-0.17,0.08-0.3,0.13-0.38,0.16v0.03
		c0.14,0.02,0.29,0.06,0.46,0.13c0.16,0.07,0.31,0.18,0.46,0.34c0.14,0.15,0.26,0.35,0.35,0.6c0.09,0.25,0.14,0.55,0.14,0.92
		c0,0.55,0.04,1.06,0.12,1.51c0.08,0.45,0.21,0.78,0.39,0.97h-1.77c-0.12-0.2-0.2-0.43-0.22-0.67c-0.02-0.25-0.03-0.48-0.03-0.71
		c0-0.43-0.03-0.8-0.08-1.12s-0.15-0.57-0.29-0.78c-0.14-0.21-0.33-0.36-0.57-0.46c-0.24-0.1-0.55-0.15-0.93-0.15h-2.43v3.88h-1.65
		V39.62z M195.86,43.91h2.71c0.53,0,0.93-0.12,1.2-0.38c0.27-0.25,0.41-0.63,0.41-1.13c0-0.3-0.04-0.54-0.13-0.73
		s-0.21-0.34-0.36-0.44c-0.15-0.11-0.33-0.18-0.53-0.21s-0.4-0.05-0.61-0.05h-2.68V43.91z"/>
	<path class="st0" d="M203.5,39.62h1.65v9.42h-1.65V39.62z M204.7,36.82h1.78l-1.88,1.89h-1.09L204.7,36.82z"/>
	<path class="st0" d="M209.69,39.62h1.76l3.63,9.42h-1.77l-0.88-2.5h-3.76l-0.88,2.5h-1.7L209.69,39.62z M209.11,45.29h2.88
		l-1.41-4.05h-0.04L209.11,45.29z"/>
	<path class="st0" d="M219.64,39.62h3.91c0.72,0,1.35,0.12,1.88,0.37c0.53,0.25,0.96,0.58,1.29,1.01c0.33,0.43,0.58,0.93,0.75,1.5
		s0.24,1.18,0.24,1.83c0,0.65-0.08,1.26-0.24,1.83c-0.16,0.57-0.41,1.07-0.75,1.5c-0.33,0.43-0.77,0.76-1.29,1.01
		c-0.53,0.25-1.15,0.37-1.88,0.37h-3.91V39.62z M221.29,47.7h1.62c0.64,0,1.17-0.09,1.58-0.26c0.41-0.17,0.73-0.41,0.96-0.71
		c0.23-0.3,0.39-0.66,0.47-1.07c0.08-0.41,0.13-0.85,0.13-1.33c0-0.48-0.04-0.92-0.13-1.33c-0.08-0.41-0.24-0.77-0.47-1.07
		c-0.23-0.3-0.55-0.54-0.96-0.71c-0.41-0.17-0.94-0.26-1.58-0.26h-1.62V47.7z"/>
	<path class="st0" d="M229.17,39.62h6.78v1.43h-5.13v2.47h4.75v1.35h-4.75v2.76h5.23v1.43h-6.88V39.62z"/>
	<path class="st0" d="M247.52,42.61c-0.07-0.27-0.17-0.52-0.29-0.75s-0.28-0.43-0.47-0.59c-0.19-0.17-0.42-0.3-0.68-0.39
		c-0.26-0.09-0.56-0.14-0.9-0.14c-0.5,0-0.94,0.1-1.3,0.3s-0.66,0.47-0.89,0.81c-0.23,0.34-0.4,0.72-0.51,1.16
		c-0.11,0.43-0.17,0.87-0.17,1.32c0,0.45,0.06,0.89,0.17,1.32c0.11,0.43,0.28,0.82,0.51,1.16c0.23,0.34,0.53,0.61,0.89,0.81
		c0.37,0.2,0.8,0.3,1.3,0.3c0.37,0,0.69-0.06,0.98-0.19c0.28-0.13,0.52-0.3,0.73-0.53c0.2-0.22,0.36-0.49,0.48-0.79
		c0.11-0.3,0.19-0.62,0.22-0.96h1.61c-0.04,0.56-0.16,1.08-0.36,1.54s-0.49,0.87-0.84,1.21c-0.35,0.34-0.77,0.6-1.24,0.79
		c-0.47,0.18-1,0.28-1.57,0.28c-0.7,0-1.34-0.13-1.89-0.39s-1.03-0.61-1.42-1.06c-0.39-0.45-0.68-0.97-0.89-1.57
		c-0.21-0.6-0.31-1.24-0.31-1.91c0-0.67,0.1-1.3,0.31-1.9c0.21-0.6,0.5-1.12,0.89-1.57c0.39-0.45,0.86-0.81,1.42-1.07
		c0.56-0.26,1.19-0.4,1.89-0.4c0.53,0,1.02,0.07,1.49,0.22c0.47,0.15,0.88,0.36,1.23,0.63s0.64,0.61,0.86,1.01
		c0.22,0.4,0.36,0.85,0.41,1.36H247.52z"/>
	<path class="st0" d="M250.69,39.62h1.65v9.42h-1.65V39.62z"/>
	<path class="st0" d="M254.36,39.62h6.78v1.43h-5.13v2.47h4.75v1.35h-4.75v2.76h5.23v1.43h-6.88V39.62z"/>
	<path class="st0" d="M262.61,39.62h1.74l4.3,6.94h0.03v-6.94h1.57v9.42h-1.74l-4.29-6.93h-0.04v6.93h-1.57V39.62z"/>
	<path class="st0" d="M278.57,42.61c-0.07-0.27-0.17-0.52-0.29-0.75s-0.28-0.43-0.47-0.59c-0.19-0.17-0.42-0.3-0.68-0.39
		c-0.26-0.09-0.56-0.14-0.9-0.14c-0.5,0-0.94,0.1-1.3,0.3s-0.66,0.47-0.89,0.81c-0.23,0.34-0.4,0.72-0.51,1.16
		c-0.11,0.43-0.17,0.87-0.17,1.32c0,0.45,0.06,0.89,0.17,1.32c0.11,0.43,0.28,0.82,0.51,1.16c0.23,0.34,0.53,0.61,0.89,0.81
		c0.37,0.2,0.8,0.3,1.3,0.3c0.37,0,0.69-0.06,0.98-0.19c0.28-0.13,0.52-0.3,0.73-0.53c0.2-0.22,0.36-0.49,0.48-0.79
		c0.11-0.3,0.19-0.62,0.22-0.96h1.61c-0.04,0.56-0.16,1.08-0.36,1.54s-0.49,0.87-0.84,1.21c-0.35,0.34-0.77,0.6-1.24,0.79
		c-0.47,0.18-1,0.28-1.57,0.28c-0.7,0-1.34-0.13-1.89-0.39s-1.03-0.61-1.42-1.06c-0.39-0.45-0.68-0.97-0.89-1.57
		c-0.21-0.6-0.31-1.24-0.31-1.91c0-0.67,0.1-1.3,0.31-1.9c0.21-0.6,0.5-1.12,0.89-1.57c0.39-0.45,0.86-0.81,1.42-1.07
		c0.56-0.26,1.19-0.4,1.89-0.4c0.53,0,1.02,0.07,1.49,0.22c0.47,0.15,0.88,0.36,1.23,0.63s0.64,0.61,0.86,1.01
		c0.22,0.4,0.36,0.85,0.41,1.36H278.57z"/>
	<path class="st0" d="M281.73,39.62h1.65v9.42h-1.65V39.62z"/>
	<path class="st0" d="M287.92,39.62h1.76l3.63,9.42h-1.77l-0.88-2.5h-3.76l-0.88,2.5h-1.7L287.92,39.62z M287.34,45.29h2.88
		l-1.41-4.05h-0.04L287.34,45.29z"/>
	<path class="st0" d="M294.11,47.26h1.83v1.78c-0.01,0.55-0.18,1-0.5,1.37c-0.33,0.37-0.75,0.61-1.28,0.71v-0.81
		c0.29-0.07,0.51-0.23,0.65-0.48c0.14-0.25,0.21-0.52,0.2-0.8h-0.91V47.26z"/>
	<path class="st0" d="M95.09,54.12h1.65v5.49c0,0.32,0.02,0.64,0.05,0.96c0.03,0.33,0.12,0.62,0.26,0.88
		c0.15,0.26,0.37,0.47,0.66,0.64s0.71,0.25,1.25,0.25c0.54,0,0.95-0.08,1.25-0.25c0.29-0.17,0.51-0.38,0.66-0.64
		c0.15-0.26,0.23-0.55,0.26-0.88c0.03-0.33,0.05-0.65,0.05-0.96v-5.49h1.65v6.03c0,0.61-0.09,1.14-0.28,1.58
		c-0.18,0.45-0.45,0.83-0.79,1.13c-0.34,0.3-0.75,0.53-1.22,0.68c-0.47,0.15-1,0.22-1.58,0.22c-0.58,0-1.11-0.08-1.58-0.22
		c-0.47-0.15-0.88-0.38-1.22-0.68s-0.6-0.68-0.79-1.13c-0.18-0.45-0.28-0.98-0.28-1.58V54.12z"/>
	<path class="st0" d="M104.66,54.12h1.74l4.3,6.94h0.03v-6.94h1.57v9.42h-1.74l-4.29-6.93h-0.04v6.93h-1.57V54.12z"/>
	<path class="st0" d="M114.25,54.12h1.65v9.42h-1.65V54.12z"/>
	<path class="st0" d="M116.85,54.12h1.72l2.36,7.46h0.03l2.42-7.46h1.68l-3.22,9.42H120L116.85,54.12z"/>
	<path class="st0" d="M125.99,54.12h6.79v1.43h-5.13v2.47h4.75v1.35h-4.75v2.76h5.23v1.43h-6.88V54.12z"/>
	<path class="st0" d="M134.31,54.12h4.5c1.04,0,1.82,0.22,2.34,0.67c0.52,0.45,0.78,1.07,0.78,1.88c0,0.45-0.07,0.82-0.2,1.12
		s-0.29,0.53-0.46,0.71s-0.35,0.31-0.52,0.39c-0.17,0.08-0.3,0.13-0.38,0.16v0.03c0.14,0.02,0.29,0.06,0.46,0.13
		s0.31,0.18,0.46,0.34c0.14,0.15,0.26,0.35,0.35,0.6c0.09,0.25,0.14,0.55,0.14,0.92c0,0.55,0.04,1.06,0.12,1.51
		c0.08,0.45,0.21,0.78,0.39,0.97h-1.77c-0.12-0.2-0.2-0.43-0.22-0.67c-0.02-0.25-0.03-0.48-0.03-0.71c0-0.43-0.03-0.8-0.08-1.12
		c-0.05-0.31-0.15-0.57-0.29-0.78s-0.33-0.36-0.57-0.46s-0.55-0.15-0.93-0.15h-2.43v3.88h-1.65V54.12z M135.95,58.41h2.71
		c0.53,0,0.93-0.12,1.2-0.38s0.41-0.63,0.41-1.13c0-0.3-0.04-0.54-0.13-0.73s-0.21-0.34-0.36-0.44s-0.33-0.18-0.53-0.21
		c-0.2-0.04-0.4-0.05-0.61-0.05h-2.68V58.41z"/>
	<path class="st0" d="M144.68,60.4c0,0.36,0.06,0.67,0.18,0.92c0.12,0.26,0.29,0.46,0.51,0.63c0.22,0.16,0.47,0.28,0.76,0.36
		c0.29,0.08,0.6,0.11,0.93,0.11c0.36,0,0.67-0.04,0.92-0.12c0.25-0.08,0.46-0.19,0.62-0.32c0.16-0.13,0.27-0.28,0.34-0.46
		s0.11-0.34,0.11-0.52c0-0.36-0.08-0.63-0.24-0.8c-0.16-0.17-0.34-0.29-0.53-0.36c-0.33-0.12-0.72-0.24-1.17-0.35
		c-0.44-0.11-0.99-0.25-1.64-0.43c-0.41-0.11-0.74-0.24-1.01-0.42c-0.27-0.17-0.48-0.36-0.64-0.57c-0.16-0.21-0.27-0.44-0.34-0.67
		c-0.07-0.24-0.1-0.48-0.1-0.73c0-0.48,0.1-0.89,0.3-1.23c0.2-0.35,0.46-0.64,0.79-0.86c0.33-0.23,0.69-0.4,1.11-0.51
		c0.41-0.11,0.83-0.17,1.25-0.17c0.49,0,0.96,0.06,1.39,0.19c0.44,0.13,0.82,0.32,1.15,0.57c0.33,0.26,0.59,0.57,0.79,0.94
		s0.29,0.81,0.29,1.3h-1.65c-0.04-0.61-0.25-1.04-0.62-1.29c-0.37-0.25-0.84-0.38-1.41-0.38c-0.19,0-0.39,0.02-0.59,0.06
		c-0.2,0.04-0.39,0.11-0.55,0.2c-0.17,0.09-0.31,0.22-0.42,0.38c-0.11,0.16-0.17,0.36-0.17,0.59c0,0.33,0.1,0.6,0.31,0.79
		c0.21,0.19,0.48,0.33,0.81,0.43c0.04,0.01,0.17,0.05,0.42,0.11c0.24,0.07,0.51,0.14,0.81,0.22c0.3,0.08,0.59,0.16,0.88,0.23
		c0.29,0.08,0.49,0.13,0.61,0.17c0.31,0.1,0.58,0.23,0.81,0.4c0.23,0.17,0.42,0.36,0.57,0.57c0.15,0.22,0.27,0.45,0.34,0.69
		c0.08,0.25,0.11,0.49,0.11,0.74c0,0.53-0.11,0.98-0.32,1.35c-0.22,0.38-0.5,0.68-0.85,0.92s-0.75,0.41-1.2,0.52
		c-0.45,0.11-0.91,0.17-1.37,0.17c-0.54,0-1.04-0.07-1.52-0.2c-0.48-0.13-0.89-0.33-1.24-0.61c-0.35-0.27-0.63-0.62-0.84-1.05
		s-0.32-0.93-0.33-1.51H144.68z"/>
	<path class="st0" d="M152.15,54.12h1.65v9.42h-1.65V54.12z"/>
	<path class="st0" d="M155.82,54.12h3.91c0.72,0,1.35,0.12,1.87,0.37c0.53,0.25,0.96,0.58,1.29,1.01c0.33,0.43,0.58,0.93,0.75,1.5
		c0.16,0.57,0.24,1.18,0.24,1.83c0,0.65-0.08,1.26-0.24,1.83c-0.16,0.57-0.41,1.07-0.75,1.5c-0.33,0.43-0.77,0.76-1.29,1.01
		c-0.53,0.25-1.15,0.37-1.87,0.37h-3.91V54.12z M157.47,62.2h1.62c0.64,0,1.17-0.09,1.58-0.26c0.41-0.17,0.73-0.41,0.96-0.71
		s0.39-0.66,0.48-1.07c0.08-0.41,0.12-0.85,0.12-1.33c0-0.48-0.04-0.92-0.12-1.33c-0.08-0.41-0.24-0.77-0.48-1.07
		s-0.55-0.54-0.96-0.71c-0.41-0.17-0.93-0.26-1.58-0.26h-1.62V62.2z"/>
	<path class="st0" d="M167.87,54.12h1.76l3.63,9.42h-1.77l-0.88-2.5h-3.76l-0.88,2.5h-1.7L167.87,54.12z M167.29,59.79h2.88
		l-1.41-4.05h-0.04L167.29,59.79z"/>
	<path class="st0" d="M174.16,54.12h3.91c0.72,0,1.35,0.12,1.88,0.37c0.53,0.25,0.96,0.58,1.29,1.01c0.33,0.43,0.58,0.93,0.75,1.5
		s0.24,1.18,0.24,1.83c0,0.65-0.08,1.26-0.24,1.83c-0.16,0.57-0.41,1.07-0.75,1.5c-0.33,0.43-0.77,0.76-1.29,1.01
		c-0.53,0.25-1.15,0.37-1.88,0.37h-3.91V54.12z M175.81,62.2h1.62c0.64,0,1.17-0.09,1.58-0.26c0.41-0.17,0.73-0.41,0.96-0.71
		c0.23-0.3,0.39-0.66,0.47-1.07c0.08-0.41,0.13-0.85,0.13-1.33c0-0.48-0.04-0.92-0.13-1.33c-0.08-0.41-0.24-0.77-0.47-1.07
		c-0.23-0.3-0.55-0.54-0.96-0.71c-0.41-0.17-0.94-0.26-1.58-0.26h-1.62V62.2z"/>
	<path class="st0" d="M183.69,54.12h6.78v1.43h-5.13v2.47h4.75v1.35h-4.75v2.76h5.23v1.43h-6.88V54.12z"/>
	<path class="st0" d="M193.08,60.4c0,0.36,0.06,0.67,0.18,0.92c0.12,0.26,0.29,0.46,0.51,0.63c0.22,0.16,0.47,0.28,0.76,0.36
		c0.29,0.08,0.6,0.11,0.93,0.11c0.36,0,0.67-0.04,0.92-0.12c0.25-0.08,0.46-0.19,0.62-0.32c0.16-0.13,0.27-0.28,0.34-0.46
		s0.11-0.34,0.11-0.52c0-0.36-0.08-0.63-0.24-0.8c-0.16-0.17-0.34-0.29-0.53-0.36c-0.33-0.12-0.72-0.24-1.17-0.35
		c-0.44-0.11-0.99-0.25-1.64-0.43c-0.41-0.11-0.74-0.24-1.01-0.42c-0.27-0.17-0.48-0.36-0.64-0.57c-0.16-0.21-0.27-0.44-0.34-0.67
		c-0.07-0.24-0.1-0.48-0.1-0.73c0-0.48,0.1-0.89,0.3-1.23c0.2-0.35,0.46-0.64,0.79-0.86c0.33-0.23,0.69-0.4,1.11-0.51
		c0.41-0.11,0.83-0.17,1.25-0.17c0.49,0,0.96,0.06,1.39,0.19c0.44,0.13,0.82,0.32,1.15,0.57c0.33,0.26,0.59,0.57,0.79,0.94
		s0.29,0.81,0.29,1.3h-1.65c-0.04-0.61-0.25-1.04-0.62-1.29c-0.37-0.25-0.84-0.38-1.41-0.38c-0.19,0-0.39,0.02-0.59,0.06
		c-0.2,0.04-0.39,0.11-0.55,0.2c-0.17,0.09-0.31,0.22-0.42,0.38c-0.11,0.16-0.17,0.36-0.17,0.59c0,0.33,0.1,0.6,0.31,0.79
		c0.21,0.19,0.48,0.33,0.81,0.43c0.04,0.01,0.17,0.05,0.42,0.11c0.24,0.07,0.51,0.14,0.81,0.22c0.3,0.08,0.59,0.16,0.88,0.23
		c0.29,0.08,0.49,0.13,0.61,0.17c0.31,0.1,0.58,0.23,0.81,0.4c0.23,0.17,0.42,0.36,0.57,0.57c0.15,0.22,0.27,0.45,0.34,0.69
		c0.08,0.25,0.11,0.49,0.11,0.74c0,0.53-0.11,0.98-0.32,1.35c-0.22,0.38-0.5,0.68-0.85,0.92s-0.75,0.41-1.2,0.52
		c-0.45,0.11-0.91,0.17-1.37,0.17c-0.54,0-1.04-0.07-1.52-0.2c-0.48-0.13-0.89-0.33-1.24-0.61c-0.35-0.27-0.63-0.62-0.84-1.05
		s-0.32-0.93-0.33-1.51H193.08z"/>
	<path class="st0" d="M204.22,54.12h6.79v1.43h-5.13v2.47h4.75v1.35h-4.75v2.76h5.23v1.43h-6.88V54.12z"/>
	<path class="st0" d="M216.21,54.12h1.65v9.42h-1.65V54.12z"/>
	<path class="st0" d="M219.81,54.12h1.74l4.3,6.94h0.03v-6.94h1.57v9.42h-1.74l-4.29-6.93h-0.04v6.93h-1.57V54.12z"/>
	<path class="st0" d="M229.34,54.12h1.74l4.3,6.94h0.03v-6.94h1.57v9.42h-1.74l-4.29-6.93h-0.04v6.93h-1.57V54.12z"/>
	<path class="st0" d="M242.95,53.89c0.7,0,1.33,0.13,1.89,0.4c0.56,0.26,1.03,0.62,1.42,1.07c0.39,0.45,0.68,0.97,0.89,1.57
		c0.21,0.6,0.31,1.23,0.31,1.9c0,0.68-0.1,1.32-0.31,1.91c-0.21,0.6-0.5,1.12-0.89,1.57c-0.39,0.45-0.86,0.8-1.42,1.06
		s-1.19,0.39-1.89,0.39c-0.7,0-1.34-0.13-1.89-0.39s-1.03-0.61-1.42-1.06c-0.39-0.45-0.68-0.97-0.89-1.57
		c-0.21-0.6-0.31-1.24-0.31-1.91c0-0.67,0.1-1.3,0.31-1.9c0.21-0.6,0.5-1.12,0.89-1.57c0.39-0.45,0.86-0.81,1.42-1.07
		C241.62,54.02,242.25,53.89,242.95,53.89z M242.95,55.24c-0.5,0-0.94,0.1-1.3,0.3s-0.66,0.47-0.89,0.81
		c-0.23,0.34-0.4,0.72-0.51,1.16c-0.11,0.43-0.17,0.87-0.17,1.32c0,0.45,0.06,0.89,0.17,1.32c0.11,0.43,0.28,0.82,0.51,1.16
		c0.23,0.34,0.53,0.61,0.89,0.81c0.37,0.2,0.8,0.3,1.3,0.3c0.5,0,0.93-0.1,1.3-0.3c0.37-0.2,0.66-0.47,0.89-0.81
		c0.23-0.34,0.4-0.72,0.51-1.16c0.11-0.43,0.17-0.87,0.17-1.32c0-0.45-0.06-0.89-0.17-1.32c-0.11-0.43-0.28-0.82-0.51-1.16
		c-0.23-0.34-0.53-0.61-0.89-0.81S243.45,55.24,242.95,55.24z"/>
	<path class="st0" d="M247.9,54.12h1.72l2.36,7.46h0.03l2.42-7.46h1.68l-3.22,9.42h-1.83L247.9,54.12z"/>
	<path class="st0" d="M258.83,54.12h1.75l3.63,9.42h-1.77l-0.88-2.5h-3.76l-0.88,2.5h-1.7L258.83,54.12z M258.25,59.79h2.88
		l-1.41-4.05h-0.04L258.25,59.79z"/>
	<path class="st0" d="M271.48,57.11c-0.07-0.27-0.17-0.52-0.29-0.75s-0.28-0.43-0.47-0.59c-0.19-0.17-0.42-0.3-0.68-0.39
		c-0.26-0.09-0.56-0.14-0.9-0.14c-0.5,0-0.94,0.1-1.3,0.3s-0.66,0.47-0.89,0.81c-0.23,0.34-0.4,0.72-0.51,1.16
		c-0.11,0.43-0.17,0.87-0.17,1.32c0,0.45,0.06,0.89,0.17,1.32c0.11,0.43,0.28,0.82,0.51,1.16c0.23,0.34,0.53,0.61,0.89,0.81
		c0.37,0.2,0.8,0.3,1.3,0.3c0.37,0,0.69-0.06,0.98-0.19c0.28-0.13,0.52-0.3,0.73-0.53c0.2-0.22,0.36-0.49,0.48-0.79
		c0.11-0.3,0.19-0.62,0.22-0.96h1.61c-0.04,0.56-0.16,1.08-0.36,1.54s-0.49,0.87-0.84,1.21c-0.35,0.34-0.77,0.6-1.24,0.79
		c-0.47,0.18-1,0.28-1.57,0.28c-0.7,0-1.34-0.13-1.89-0.39s-1.03-0.61-1.42-1.06c-0.39-0.45-0.68-0.97-0.89-1.57
		c-0.21-0.6-0.31-1.24-0.31-1.91c0-0.67,0.1-1.3,0.31-1.9c0.21-0.6,0.5-1.12,0.89-1.57c0.39-0.45,0.86-0.81,1.42-1.07
		c0.56-0.26,1.19-0.4,1.89-0.4c0.53,0,1.02,0.07,1.49,0.22c0.47,0.15,0.88,0.36,1.23,0.63s0.64,0.61,0.86,1.01
		c0.22,0.4,0.36,0.85,0.41,1.36H271.48z"/>
	<path class="st0" d="M274.65,54.12h1.65v9.42h-1.65V54.12z"/>
	<path class="st0" d="M282.33,53.89c0.7,0,1.33,0.13,1.89,0.4c0.56,0.26,1.03,0.62,1.42,1.07c0.39,0.45,0.68,0.97,0.89,1.57
		s0.31,1.23,0.31,1.9c0,0.68-0.1,1.32-0.31,1.91c-0.21,0.6-0.5,1.12-0.89,1.57c-0.39,0.45-0.86,0.8-1.42,1.06
		c-0.56,0.26-1.19,0.39-1.89,0.39s-1.33-0.13-1.89-0.39c-0.56-0.26-1.03-0.61-1.42-1.06c-0.39-0.45-0.68-0.97-0.89-1.57
		c-0.21-0.6-0.31-1.24-0.31-1.91c0-0.67,0.1-1.3,0.31-1.9s0.5-1.12,0.89-1.57c0.39-0.45,0.86-0.81,1.42-1.07
		C280.99,54.02,281.62,53.89,282.33,53.89z M282.33,55.24c-0.5,0-0.93,0.1-1.3,0.3s-0.66,0.47-0.89,0.81
		c-0.23,0.34-0.4,0.72-0.51,1.16c-0.11,0.43-0.17,0.87-0.17,1.32c0,0.45,0.05,0.89,0.17,1.32c0.11,0.43,0.28,0.82,0.51,1.16
		c0.23,0.34,0.53,0.61,0.89,0.81c0.37,0.2,0.8,0.3,1.3,0.3s0.94-0.1,1.3-0.3c0.36-0.2,0.66-0.47,0.89-0.81
		c0.23-0.34,0.4-0.72,0.51-1.16c0.11-0.43,0.17-0.87,0.17-1.32c0-0.45-0.05-0.89-0.17-1.32c-0.11-0.43-0.28-0.82-0.51-1.16
		c-0.23-0.34-0.53-0.61-0.89-0.81C283.26,55.34,282.83,55.24,282.33,55.24z M282.89,51.32h1.78l-1.87,1.89h-1.1L282.89,51.32z"/>
	<path class="st0" d="M288.28,54.12h1.74l4.3,6.94h0.03v-6.94h1.57v9.42h-1.74l-4.29-6.93h-0.04v6.93h-1.57V54.12z"/>
</g>
<g>
	<path class="st0" d="M69.16,3.87h3.91c0.72,0,1.35,0.12,1.88,0.37c0.53,0.25,0.96,0.58,1.29,1.01c0.33,0.43,0.58,0.93,0.75,1.5
		s0.24,1.18,0.24,1.83c0,0.65-0.08,1.26-0.24,1.83c-0.16,0.57-0.41,1.07-0.75,1.5c-0.33,0.43-0.77,0.76-1.29,1.01
		c-0.53,0.25-1.15,0.37-1.88,0.37h-3.91V3.87z M70.81,11.95h1.62c0.64,0,1.17-0.09,1.58-0.26c0.41-0.17,0.73-0.41,0.96-0.71
		c0.23-0.3,0.39-0.66,0.47-1.07c0.08-0.41,0.13-0.85,0.13-1.33c0-0.48-0.04-0.92-0.13-1.33c-0.08-0.41-0.24-0.77-0.47-1.07
		c-0.23-0.3-0.55-0.54-0.96-0.71c-0.41-0.17-0.94-0.26-1.58-0.26h-1.62V11.95z"/>
	<path class="st0" d="M78.52,3.87h1.5v1.43h-1.5V3.87z M78.52,6.47h1.5v6.82h-1.5V6.47z"/>
	<path class="st0" d="M81.66,6.47h1.41v1.32h0.03c0.04-0.18,0.13-0.36,0.26-0.54c0.13-0.18,0.28-0.34,0.46-0.48
		C84,6.62,84.2,6.5,84.42,6.42c0.22-0.09,0.44-0.13,0.67-0.13c0.18,0,0.3,0,0.36,0.01c0.07,0.01,0.13,0.02,0.2,0.03v1.45
		c-0.11-0.02-0.21-0.03-0.32-0.05c-0.11-0.01-0.22-0.02-0.32-0.02c-0.25,0-0.5,0.05-0.72,0.15c-0.22,0.1-0.42,0.25-0.59,0.45
		c-0.17,0.2-0.3,0.44-0.4,0.73c-0.1,0.29-0.14,0.62-0.14,1v3.25h-1.5V6.47z"/>
	<path class="st0" d="M87.24,10.27c0,0.26,0.04,0.52,0.11,0.77c0.08,0.25,0.19,0.46,0.34,0.65c0.15,0.18,0.34,0.33,0.57,0.44
		s0.5,0.17,0.82,0.17c0.44,0,0.79-0.09,1.06-0.28s0.47-0.47,0.6-0.85h1.43c-0.08,0.37-0.22,0.7-0.41,0.99s-0.43,0.53-0.7,0.73
		c-0.27,0.2-0.58,0.35-0.92,0.45c-0.34,0.1-0.69,0.15-1.06,0.15c-0.54,0-1.01-0.09-1.43-0.26c-0.41-0.18-0.76-0.42-1.05-0.74
		c-0.29-0.32-0.5-0.7-0.65-1.13c-0.14-0.44-0.22-0.92-0.22-1.45c0-0.48,0.08-0.94,0.23-1.38c0.15-0.44,0.37-0.82,0.66-1.15
		c0.29-0.33,0.63-0.59,1.04-0.79c0.4-0.19,0.86-0.29,1.37-0.29c0.54,0,1.02,0.11,1.45,0.34c0.43,0.22,0.78,0.52,1.06,0.89
		c0.28,0.37,0.49,0.79,0.61,1.27c0.13,0.48,0.16,0.97,0.1,1.49H87.24z M90.75,9.28c-0.02-0.24-0.07-0.47-0.15-0.69
		c-0.08-0.22-0.2-0.41-0.34-0.57s-0.32-0.29-0.53-0.4c-0.21-0.1-0.44-0.15-0.69-0.15c-0.26,0-0.5,0.05-0.72,0.14
		s-0.4,0.22-0.55,0.38s-0.28,0.35-0.37,0.57c-0.09,0.22-0.14,0.46-0.15,0.71H90.75z"/>
	<path class="st0" d="M98.01,8.75c-0.06-0.42-0.23-0.74-0.51-0.96c-0.28-0.21-0.63-0.32-1.05-0.32c-0.19,0-0.4,0.03-0.62,0.1
		c-0.22,0.07-0.42,0.19-0.61,0.37s-0.34,0.43-0.46,0.75c-0.12,0.32-0.18,0.74-0.18,1.26c0,0.28,0.03,0.56,0.1,0.84
		c0.07,0.28,0.17,0.53,0.32,0.75c0.14,0.22,0.33,0.4,0.56,0.53c0.23,0.14,0.51,0.21,0.83,0.21c0.44,0,0.8-0.14,1.09-0.41
		c0.29-0.27,0.46-0.66,0.53-1.15h1.5c-0.14,0.89-0.48,1.57-1.01,2.04s-1.24,0.71-2.12,0.71c-0.54,0-1.01-0.09-1.42-0.27
		c-0.41-0.18-0.75-0.43-1.04-0.74c-0.28-0.31-0.49-0.68-0.64-1.12c-0.15-0.43-0.22-0.9-0.22-1.4c0-0.51,0.07-0.99,0.21-1.44
		c0.14-0.45,0.35-0.84,0.63-1.17c0.28-0.33,0.63-0.59,1.05-0.78c0.42-0.19,0.91-0.28,1.47-0.28c0.4,0,0.77,0.05,1.13,0.15
		c0.36,0.1,0.67,0.25,0.95,0.46c0.28,0.2,0.5,0.46,0.68,0.77c0.18,0.31,0.28,0.67,0.32,1.1H98.01z"/>
	<path class="st0" d="M105.35,8.75c-0.06-0.42-0.23-0.74-0.51-0.96c-0.28-0.21-0.63-0.32-1.05-0.32c-0.19,0-0.4,0.03-0.62,0.1
		c-0.22,0.07-0.42,0.19-0.61,0.37s-0.34,0.43-0.46,0.75c-0.12,0.32-0.18,0.74-0.18,1.26c0,0.28,0.03,0.56,0.1,0.84
		c0.07,0.28,0.17,0.53,0.32,0.75c0.14,0.22,0.33,0.4,0.56,0.53c0.23,0.14,0.51,0.21,0.83,0.21c0.44,0,0.8-0.14,1.09-0.41
		c0.29-0.27,0.46-0.66,0.53-1.15h1.5c-0.14,0.89-0.48,1.57-1.01,2.04s-1.24,0.71-2.12,0.71c-0.54,0-1.01-0.09-1.42-0.27
		c-0.41-0.18-0.75-0.43-1.04-0.74c-0.28-0.31-0.49-0.68-0.64-1.12c-0.15-0.43-0.22-0.9-0.22-1.4c0-0.51,0.07-0.99,0.21-1.44
		c0.14-0.45,0.35-0.84,0.63-1.17c0.28-0.33,0.63-0.59,1.05-0.78c0.42-0.19,0.91-0.28,1.47-0.28c0.4,0,0.77,0.05,1.13,0.15
		c0.36,0.1,0.67,0.25,0.95,0.46c0.28,0.2,0.5,0.46,0.68,0.77c0.18,0.31,0.28,0.67,0.32,1.1H105.35z"/>
	<path class="st0" d="M108.13,3.87h1.5v1.43h-1.5V3.87z M108.13,6.47h1.5v6.82h-1.5V6.47z"/>
	<path class="st0" d="M114.39,13.48c-0.55,0-1.03-0.09-1.46-0.27c-0.43-0.18-0.79-0.43-1.08-0.75c-0.29-0.32-0.52-0.69-0.67-1.13
		c-0.15-0.44-0.23-0.92-0.23-1.45c0-0.52,0.08-1,0.23-1.44c0.15-0.44,0.38-0.82,0.67-1.14c0.29-0.32,0.66-0.57,1.08-0.75
		c0.43-0.18,0.91-0.27,1.46-0.27s1.03,0.09,1.46,0.27c0.43,0.18,0.79,0.43,1.08,0.75c0.29,0.32,0.52,0.7,0.67,1.14
		c0.15,0.44,0.23,0.92,0.23,1.44c0,0.53-0.08,1.01-0.23,1.45c-0.15,0.44-0.38,0.82-0.67,1.13c-0.29,0.32-0.66,0.57-1.08,0.75
		C115.43,13.39,114.94,13.48,114.39,13.48z M114.39,12.29c0.33,0,0.62-0.07,0.87-0.21c0.25-0.14,0.45-0.33,0.61-0.55
		s0.28-0.49,0.35-0.77c0.08-0.29,0.11-0.58,0.11-0.88c0-0.29-0.04-0.58-0.11-0.87c-0.07-0.29-0.19-0.55-0.35-0.77
		c-0.16-0.22-0.36-0.41-0.61-0.55c-0.25-0.14-0.54-0.21-0.87-0.21c-0.33,0-0.62,0.07-0.87,0.21c-0.25,0.14-0.45,0.32-0.61,0.55
		c-0.16,0.22-0.27,0.48-0.35,0.77s-0.11,0.58-0.11,0.87c0,0.3,0.04,0.59,0.11,0.88s0.19,0.54,0.35,0.77
		c0.16,0.23,0.36,0.41,0.61,0.55C113.77,12.22,114.06,12.29,114.39,12.29z M114.83,3.63h1.78l-1.87,1.89h-1.1L114.83,3.63z"/>
	<path class="st0" d="M119.09,6.47h1.43v1l0.03,0.03c0.23-0.38,0.53-0.67,0.9-0.89c0.37-0.22,0.78-0.32,1.23-0.32
		c0.75,0,1.34,0.19,1.77,0.58c0.43,0.39,0.65,0.97,0.65,1.74v4.69h-1.5V9c-0.02-0.54-0.13-0.93-0.34-1.17
		c-0.21-0.24-0.54-0.36-0.99-0.36c-0.26,0-0.48,0.05-0.69,0.14s-0.37,0.22-0.51,0.38c-0.14,0.16-0.25,0.35-0.33,0.57
		s-0.12,0.45-0.12,0.7v4.03h-1.5V6.47z"/>
	<path class="st0" d="M138.77,13.29h-1.06l-0.25-1.11c-0.44,0.5-0.88,0.85-1.32,1.04c-0.44,0.19-0.95,0.29-1.52,0.29
		c-0.7,0-1.33-0.13-1.89-0.39c-0.56-0.26-1.03-0.61-1.42-1.06c-0.39-0.45-0.68-0.97-0.89-1.57c-0.21-0.6-0.31-1.24-0.31-1.91
		c0-0.67,0.1-1.3,0.31-1.9s0.5-1.12,0.89-1.57c0.39-0.45,0.86-0.81,1.42-1.07c0.56-0.26,1.19-0.4,1.89-0.4c0.51,0,1,0.07,1.46,0.21
		s0.87,0.34,1.23,0.61c0.36,0.27,0.66,0.6,0.9,1.01c0.24,0.4,0.39,0.87,0.45,1.4h-1.61c-0.04-0.31-0.14-0.58-0.28-0.81
		c-0.15-0.23-0.33-0.43-0.55-0.59c-0.22-0.16-0.47-0.28-0.74-0.36c-0.27-0.08-0.56-0.12-0.86-0.12c-0.5,0-0.93,0.1-1.3,0.3
		s-0.66,0.47-0.89,0.81c-0.23,0.34-0.4,0.72-0.51,1.16c-0.11,0.43-0.17,0.87-0.17,1.32c0,0.45,0.05,0.89,0.17,1.32
		c0.11,0.43,0.28,0.82,0.51,1.16c0.23,0.34,0.53,0.61,0.89,0.81c0.37,0.2,0.8,0.3,1.3,0.3c0.42,0.01,0.8-0.05,1.12-0.17
		s0.6-0.29,0.83-0.51s0.39-0.5,0.51-0.83c0.11-0.33,0.18-0.69,0.19-1.08h-2.51V8.33h4.01V13.29z"/>
	<path class="st0" d="M141.53,10.27c0,0.26,0.04,0.52,0.11,0.77c0.08,0.25,0.19,0.46,0.34,0.65c0.15,0.18,0.34,0.33,0.57,0.44
		s0.5,0.17,0.82,0.17c0.44,0,0.79-0.09,1.06-0.28s0.47-0.47,0.6-0.85h1.43c-0.08,0.37-0.22,0.7-0.41,0.99s-0.43,0.53-0.7,0.73
		c-0.27,0.2-0.58,0.35-0.92,0.45c-0.34,0.1-0.69,0.15-1.06,0.15c-0.54,0-1.01-0.09-1.43-0.26c-0.41-0.18-0.76-0.42-1.05-0.74
		c-0.29-0.32-0.5-0.7-0.65-1.13c-0.14-0.44-0.22-0.92-0.22-1.45c0-0.48,0.08-0.94,0.23-1.38c0.15-0.44,0.37-0.82,0.66-1.15
		c0.29-0.33,0.63-0.59,1.04-0.79c0.4-0.19,0.86-0.29,1.37-0.29c0.54,0,1.02,0.11,1.45,0.34c0.43,0.22,0.78,0.52,1.06,0.89
		c0.28,0.37,0.49,0.79,0.61,1.27c0.13,0.48,0.16,0.97,0.1,1.49H141.53z M145.05,9.28c-0.02-0.24-0.07-0.47-0.15-0.69
		c-0.08-0.22-0.2-0.41-0.34-0.57s-0.32-0.29-0.53-0.4c-0.21-0.1-0.44-0.15-0.69-0.15c-0.26,0-0.5,0.05-0.72,0.14
		s-0.4,0.22-0.55,0.38s-0.28,0.35-0.37,0.57c-0.09,0.22-0.14,0.46-0.15,0.71H145.05z"/>
	<path class="st0" d="M147.7,6.47h1.43v1l0.03,0.03c0.23-0.38,0.53-0.67,0.9-0.89c0.37-0.22,0.78-0.32,1.23-0.32
		c0.75,0,1.34,0.19,1.77,0.58c0.43,0.39,0.65,0.97,0.65,1.74v4.69h-1.5V9c-0.02-0.54-0.13-0.93-0.34-1.17s-0.54-0.36-0.99-0.36
		c-0.25,0-0.48,0.05-0.69,0.14c-0.2,0.09-0.37,0.22-0.51,0.38s-0.25,0.35-0.33,0.57s-0.12,0.45-0.12,0.7v4.03h-1.5V6.47z"/>
	<path class="st0" d="M156.45,10.27c0,0.26,0.04,0.52,0.11,0.77c0.08,0.25,0.19,0.46,0.34,0.65c0.15,0.18,0.34,0.33,0.57,0.44
		s0.5,0.17,0.82,0.17c0.44,0,0.79-0.09,1.06-0.28s0.47-0.47,0.6-0.85h1.43c-0.08,0.37-0.22,0.7-0.41,0.99s-0.43,0.53-0.7,0.73
		c-0.27,0.2-0.58,0.35-0.92,0.45c-0.34,0.1-0.69,0.15-1.06,0.15c-0.54,0-1.01-0.09-1.43-0.26c-0.41-0.18-0.76-0.42-1.05-0.74
		c-0.29-0.32-0.5-0.7-0.65-1.13c-0.14-0.44-0.22-0.92-0.22-1.45c0-0.48,0.08-0.94,0.23-1.38c0.15-0.44,0.37-0.82,0.66-1.15
		c0.29-0.33,0.63-0.59,1.04-0.79c0.4-0.19,0.86-0.29,1.37-0.29c0.54,0,1.02,0.11,1.45,0.34c0.43,0.22,0.78,0.52,1.06,0.89
		c0.28,0.37,0.49,0.79,0.61,1.27c0.13,0.48,0.16,0.97,0.1,1.49H156.45z M159.96,9.28c-0.02-0.24-0.07-0.47-0.15-0.69
		c-0.08-0.22-0.2-0.41-0.34-0.57s-0.32-0.29-0.53-0.4c-0.21-0.1-0.44-0.15-0.69-0.15c-0.26,0-0.5,0.05-0.72,0.14
		s-0.4,0.22-0.55,0.38s-0.28,0.35-0.37,0.57c-0.09,0.22-0.14,0.46-0.15,0.71H159.96z"/>
	<path class="st0" d="M162.61,6.47h1.41v1.32h0.03c0.04-0.18,0.13-0.36,0.26-0.54c0.13-0.18,0.28-0.34,0.46-0.48s0.38-0.26,0.6-0.35
		s0.44-0.13,0.67-0.13c0.18,0,0.3,0,0.36,0.01c0.07,0.01,0.13,0.02,0.21,0.03v1.45c-0.11-0.02-0.21-0.03-0.32-0.05
		c-0.11-0.01-0.22-0.02-0.32-0.02c-0.26,0-0.5,0.05-0.72,0.15s-0.42,0.25-0.59,0.45c-0.17,0.2-0.3,0.44-0.4,0.73
		c-0.1,0.29-0.15,0.62-0.15,1v3.25h-1.5V6.47z"/>
	<path class="st0" d="M172.98,11.77c0,0.18,0.02,0.32,0.07,0.4c0.05,0.08,0.14,0.12,0.28,0.12c0.04,0,0.1,0,0.16,0
		s0.13-0.01,0.21-0.03v1.04c-0.05,0.02-0.12,0.04-0.2,0.06c-0.08,0.02-0.17,0.04-0.26,0.06s-0.18,0.03-0.26,0.04
		s-0.16,0.01-0.22,0.01c-0.31,0-0.56-0.06-0.77-0.18s-0.33-0.34-0.4-0.65c-0.3,0.29-0.67,0.5-1.1,0.63c-0.44,0.13-0.86,0.2-1.26,0.2
		c-0.31,0-0.6-0.04-0.88-0.12c-0.28-0.08-0.53-0.21-0.75-0.37c-0.22-0.16-0.39-0.37-0.51-0.62c-0.13-0.25-0.19-0.54-0.19-0.88
		c0-0.42,0.08-0.77,0.23-1.03c0.15-0.26,0.36-0.47,0.61-0.62c0.25-0.15,0.53-0.26,0.84-0.32c0.31-0.07,0.63-0.12,0.94-0.15
		c0.27-0.05,0.53-0.09,0.78-0.11c0.25-0.02,0.46-0.06,0.65-0.11s0.34-0.13,0.45-0.24c0.11-0.11,0.17-0.27,0.17-0.5
		c0-0.19-0.05-0.35-0.14-0.47c-0.09-0.12-0.21-0.22-0.34-0.28c-0.14-0.07-0.29-0.11-0.46-0.13c-0.17-0.02-0.33-0.03-0.48-0.03
		c-0.42,0-0.77,0.09-1.04,0.26c-0.27,0.18-0.43,0.45-0.46,0.82h-1.5c0.03-0.44,0.13-0.8,0.32-1.09c0.18-0.29,0.42-0.52,0.71-0.7
		c0.29-0.18,0.61-0.3,0.97-0.37c0.36-0.07,0.73-0.11,1.11-0.11c0.33,0,0.66,0.04,0.99,0.11c0.33,0.07,0.62,0.18,0.88,0.34
		c0.26,0.16,0.47,0.36,0.63,0.61s0.24,0.56,0.24,0.92V11.77z M171.47,9.87c-0.23,0.15-0.51,0.24-0.84,0.27
		c-0.33,0.03-0.67,0.08-1,0.14c-0.16,0.03-0.31,0.06-0.46,0.11c-0.15,0.05-0.28,0.11-0.4,0.2s-0.2,0.19-0.27,0.33s-0.1,0.3-0.1,0.5
		c0,0.17,0.05,0.31,0.14,0.42s0.21,0.21,0.35,0.27c0.14,0.07,0.29,0.11,0.45,0.14s0.31,0.04,0.44,0.04c0.17,0,0.35-0.02,0.54-0.07
		s0.38-0.12,0.55-0.22s0.31-0.24,0.43-0.4s0.17-0.36,0.17-0.6V9.87z"/>
	<path class="st0" d="M174.64,3.87h1.5v9.42h-1.5V3.87z"/>
	<path class="st0" d="M187.88,13.29h-1.42v-0.92h-0.03c-0.2,0.4-0.5,0.68-0.88,0.85c-0.39,0.17-0.8,0.26-1.23,0.26
		c-0.54,0-1.01-0.09-1.41-0.28c-0.4-0.19-0.73-0.45-1-0.77s-0.46-0.71-0.59-1.16c-0.13-0.44-0.2-0.92-0.2-1.43
		c0-0.62,0.08-1.15,0.25-1.6c0.17-0.45,0.39-0.82,0.67-1.11c0.28-0.29,0.59-0.5,0.95-0.64c0.36-0.14,0.72-0.2,1.09-0.2
		c0.21,0,0.43,0.02,0.65,0.06c0.22,0.04,0.43,0.1,0.63,0.19c0.2,0.09,0.39,0.2,0.56,0.34s0.31,0.3,0.43,0.48h0.03V3.87h1.5V13.29z
		 M182.63,9.95c0,0.29,0.04,0.58,0.11,0.86c0.07,0.28,0.19,0.53,0.34,0.75c0.15,0.22,0.35,0.4,0.59,0.53
		c0.24,0.13,0.52,0.2,0.84,0.2c0.33,0,0.62-0.07,0.86-0.21c0.24-0.14,0.44-0.33,0.59-0.55s0.27-0.49,0.34-0.77
		c0.07-0.29,0.11-0.58,0.11-0.88c0-0.76-0.17-1.35-0.51-1.77c-0.34-0.42-0.8-0.63-1.38-0.63c-0.35,0-0.65,0.07-0.89,0.22
		s-0.44,0.33-0.59,0.57c-0.15,0.23-0.26,0.5-0.33,0.79C182.66,9.34,182.63,9.64,182.63,9.95z"/>
	<path class="st0" d="M190.69,10.27c0,0.26,0.04,0.52,0.11,0.77c0.08,0.25,0.19,0.46,0.34,0.65c0.15,0.18,0.34,0.33,0.57,0.44
		s0.5,0.17,0.82,0.17c0.44,0,0.79-0.09,1.06-0.28s0.47-0.47,0.6-0.85h1.43c-0.08,0.37-0.22,0.7-0.41,0.99s-0.43,0.53-0.7,0.73
		c-0.27,0.2-0.58,0.35-0.92,0.45c-0.34,0.1-0.69,0.15-1.06,0.15c-0.54,0-1.01-0.09-1.43-0.26c-0.41-0.18-0.76-0.42-1.05-0.74
		c-0.29-0.32-0.5-0.7-0.65-1.13c-0.14-0.44-0.22-0.92-0.22-1.45c0-0.48,0.08-0.94,0.23-1.38c0.15-0.44,0.37-0.82,0.66-1.15
		c0.29-0.33,0.63-0.59,1.04-0.79c0.4-0.19,0.86-0.29,1.37-0.29c0.54,0,1.02,0.11,1.45,0.34c0.43,0.22,0.78,0.52,1.06,0.89
		c0.28,0.37,0.49,0.79,0.61,1.27c0.13,0.48,0.16,0.97,0.1,1.49H190.69z M194.2,9.28c-0.02-0.24-0.07-0.47-0.15-0.69
		c-0.08-0.22-0.2-0.41-0.34-0.57s-0.32-0.29-0.53-0.4c-0.21-0.1-0.44-0.15-0.69-0.15c-0.26,0-0.5,0.05-0.72,0.14
		s-0.4,0.22-0.55,0.38s-0.28,0.35-0.37,0.57c-0.09,0.22-0.14,0.46-0.15,0.71H194.2z"/>
	<path class="st0" d="M200.63,3.87h1.65v5.49c0,0.32,0.02,0.64,0.05,0.96c0.03,0.33,0.12,0.62,0.26,0.88
		c0.14,0.26,0.36,0.47,0.66,0.64s0.71,0.25,1.25,0.25c0.54,0,0.95-0.08,1.25-0.25s0.51-0.38,0.66-0.64
		c0.15-0.26,0.23-0.55,0.26-0.88c0.03-0.33,0.05-0.65,0.05-0.96V3.87h1.65V9.9c0,0.61-0.09,1.14-0.28,1.58
		c-0.18,0.45-0.45,0.83-0.79,1.13s-0.75,0.53-1.22,0.68c-0.48,0.15-1,0.22-1.58,0.22s-1.11-0.08-1.58-0.22
		c-0.48-0.15-0.88-0.38-1.22-0.68s-0.6-0.68-0.79-1.13c-0.18-0.45-0.28-0.98-0.28-1.58V3.87z"/>
	<path class="st0" d="M210.05,6.47h1.43v1l0.03,0.03c0.23-0.38,0.53-0.67,0.9-0.89c0.37-0.22,0.78-0.32,1.23-0.32
		c0.75,0,1.34,0.19,1.77,0.58c0.43,0.39,0.65,0.97,0.65,1.74v4.69h-1.5V9c-0.02-0.54-0.13-0.93-0.34-1.17
		c-0.21-0.24-0.54-0.36-0.99-0.36c-0.26,0-0.48,0.05-0.69,0.14c-0.2,0.09-0.37,0.22-0.51,0.38c-0.14,0.16-0.25,0.35-0.33,0.57
		s-0.12,0.45-0.12,0.7v4.03h-1.5V6.47z"/>
	<path class="st0" d="M217.67,3.87h1.5v1.43h-1.5V3.87z M217.67,6.47h1.5v6.82h-1.5V6.47z"/>
	<path class="st0" d="M220.14,6.47h1.64l1.73,5.24h0.03l1.66-5.24h1.56l-2.44,6.82h-1.69L220.14,6.47z"/>
	<path class="st0" d="M228.84,10.27c0,0.26,0.04,0.52,0.11,0.77c0.08,0.25,0.19,0.46,0.34,0.65c0.15,0.18,0.34,0.33,0.57,0.44
		s0.5,0.17,0.82,0.17c0.44,0,0.79-0.09,1.06-0.28s0.47-0.47,0.6-0.85h1.43c-0.08,0.37-0.22,0.7-0.41,0.99s-0.43,0.53-0.7,0.73
		c-0.27,0.2-0.58,0.35-0.92,0.45c-0.34,0.1-0.69,0.15-1.06,0.15c-0.54,0-1.01-0.09-1.43-0.26c-0.41-0.18-0.76-0.42-1.05-0.74
		c-0.29-0.32-0.5-0.7-0.65-1.13c-0.14-0.44-0.22-0.92-0.22-1.45c0-0.48,0.08-0.94,0.23-1.38c0.15-0.44,0.37-0.82,0.66-1.15
		c0.29-0.33,0.63-0.59,1.04-0.79c0.4-0.19,0.86-0.29,1.37-0.29c0.54,0,1.02,0.11,1.45,0.34c0.43,0.22,0.78,0.52,1.06,0.89
		c0.28,0.37,0.49,0.79,0.61,1.27c0.13,0.48,0.16,0.97,0.1,1.49H228.84z M232.35,9.28c-0.02-0.24-0.07-0.47-0.15-0.69
		c-0.08-0.22-0.2-0.41-0.34-0.57s-0.32-0.29-0.53-0.4c-0.21-0.1-0.44-0.15-0.69-0.15c-0.26,0-0.5,0.05-0.72,0.14
		s-0.4,0.22-0.55,0.38s-0.28,0.35-0.37,0.57c-0.09,0.22-0.14,0.46-0.15,0.71H232.35z"/>
	<path class="st0" d="M235,6.47h1.41v1.32h0.03c0.04-0.18,0.13-0.36,0.26-0.54c0.13-0.18,0.28-0.34,0.46-0.48
		c0.18-0.15,0.38-0.26,0.6-0.35c0.22-0.09,0.44-0.13,0.67-0.13c0.18,0,0.3,0,0.36,0.01c0.07,0.01,0.13,0.02,0.2,0.03v1.45
		c-0.11-0.02-0.21-0.03-0.32-0.05c-0.11-0.01-0.22-0.02-0.32-0.02c-0.25,0-0.5,0.05-0.72,0.15c-0.22,0.1-0.42,0.25-0.59,0.45
		c-0.17,0.2-0.3,0.44-0.4,0.73c-0.1,0.29-0.14,0.62-0.14,1v3.25H235V6.47z"/>
	<path class="st0" d="M240.78,11.1c0.04,0.44,0.21,0.75,0.5,0.92c0.29,0.18,0.64,0.26,1.04,0.26c0.14,0,0.3-0.01,0.48-0.03
		c0.18-0.02,0.35-0.06,0.51-0.12c0.16-0.06,0.29-0.15,0.39-0.27c0.1-0.12,0.15-0.27,0.14-0.47c-0.01-0.19-0.08-0.35-0.21-0.48
		s-0.3-0.22-0.51-0.3c-0.21-0.08-0.44-0.14-0.71-0.19c-0.26-0.05-0.53-0.11-0.8-0.17c-0.28-0.06-0.55-0.14-0.81-0.22
		c-0.26-0.09-0.49-0.21-0.7-0.36c-0.21-0.15-0.37-0.34-0.5-0.57c-0.12-0.23-0.18-0.52-0.18-0.86c0-0.37,0.09-0.68,0.27-0.93
		s0.41-0.45,0.69-0.61c0.28-0.15,0.58-0.26,0.92-0.32s0.66-0.09,0.97-0.09c0.35,0,0.69,0.04,1.01,0.11c0.32,0.08,0.61,0.2,0.87,0.36
		c0.26,0.17,0.47,0.38,0.65,0.65c0.17,0.27,0.28,0.59,0.32,0.97h-1.57c-0.07-0.36-0.24-0.6-0.5-0.73c-0.26-0.12-0.56-0.18-0.89-0.18
		c-0.11,0-0.23,0.01-0.38,0.03c-0.14,0.02-0.28,0.05-0.41,0.1c-0.13,0.05-0.24,0.12-0.32,0.21c-0.09,0.09-0.13,0.21-0.13,0.36
		c0,0.19,0.06,0.33,0.19,0.45c0.13,0.11,0.29,0.21,0.5,0.28c0.21,0.07,0.44,0.14,0.71,0.19c0.26,0.05,0.54,0.11,0.82,0.17
		c0.27,0.06,0.54,0.14,0.8,0.22c0.26,0.09,0.5,0.21,0.71,0.36c0.21,0.15,0.37,0.34,0.5,0.57c0.13,0.23,0.19,0.51,0.19,0.84
		c0,0.41-0.09,0.75-0.28,1.03c-0.18,0.28-0.42,0.51-0.72,0.69c-0.29,0.18-0.62,0.3-0.98,0.38c-0.36,0.08-0.72,0.12-1.07,0.12
		c-0.43,0-0.83-0.05-1.2-0.14c-0.37-0.1-0.68-0.25-0.95-0.44c-0.27-0.2-0.48-0.44-0.63-0.74c-0.15-0.29-0.24-0.64-0.24-1.05H240.78z
		"/>
	<path class="st0" d="M246.54,3.87h1.5v1.43h-1.5V3.87z M246.54,6.47h1.5v6.82h-1.5V6.47z"/>
	<path class="st0" d="M256.11,13.29h-1.43v-0.92h-0.03c-0.2,0.4-0.5,0.68-0.88,0.85c-0.39,0.17-0.8,0.26-1.23,0.26
		c-0.54,0-1-0.09-1.41-0.28c-0.4-0.19-0.73-0.45-1-0.77c-0.26-0.33-0.46-0.71-0.59-1.16s-0.2-0.92-0.2-1.43
		c0-0.62,0.08-1.15,0.25-1.6s0.39-0.82,0.67-1.11c0.28-0.29,0.59-0.5,0.95-0.64s0.72-0.2,1.09-0.2c0.21,0,0.43,0.02,0.65,0.06
		c0.22,0.04,0.43,0.1,0.63,0.19c0.2,0.09,0.39,0.2,0.56,0.34c0.17,0.14,0.31,0.3,0.43,0.48h0.03V3.87h1.5V13.29z M250.85,9.95
		c0,0.29,0.04,0.58,0.11,0.86s0.19,0.53,0.34,0.75c0.15,0.22,0.35,0.4,0.59,0.53s0.52,0.2,0.84,0.2c0.33,0,0.62-0.07,0.87-0.21
		c0.24-0.14,0.44-0.33,0.59-0.55c0.15-0.23,0.27-0.49,0.34-0.77c0.08-0.29,0.11-0.58,0.11-0.88c0-0.76-0.17-1.35-0.51-1.77
		c-0.34-0.42-0.8-0.63-1.38-0.63c-0.35,0-0.65,0.07-0.89,0.22s-0.44,0.33-0.59,0.57c-0.15,0.23-0.26,0.5-0.33,0.79
		C250.89,9.34,250.85,9.64,250.85,9.95z"/>
	<path class="st0" d="M263.46,11.77c0,0.18,0.02,0.32,0.07,0.4c0.05,0.08,0.14,0.12,0.28,0.12c0.04,0,0.1,0,0.16,0
		s0.13-0.01,0.21-0.03v1.04c-0.05,0.02-0.12,0.04-0.21,0.06c-0.08,0.02-0.17,0.04-0.26,0.06c-0.09,0.02-0.18,0.03-0.26,0.04
		c-0.09,0.01-0.16,0.01-0.22,0.01c-0.31,0-0.56-0.06-0.77-0.18c-0.2-0.12-0.33-0.34-0.4-0.65c-0.3,0.29-0.67,0.5-1.1,0.63
		c-0.44,0.13-0.86,0.2-1.26,0.2c-0.31,0-0.6-0.04-0.88-0.12c-0.28-0.08-0.53-0.21-0.75-0.37c-0.21-0.16-0.39-0.37-0.51-0.62
		c-0.13-0.25-0.19-0.54-0.19-0.88c0-0.42,0.08-0.77,0.23-1.03c0.15-0.26,0.36-0.47,0.61-0.62c0.25-0.15,0.53-0.26,0.84-0.32
		c0.31-0.07,0.63-0.12,0.94-0.15c0.27-0.05,0.53-0.09,0.78-0.11c0.25-0.02,0.46-0.06,0.65-0.11c0.19-0.05,0.34-0.13,0.45-0.24
		c0.11-0.11,0.17-0.27,0.17-0.5c0-0.19-0.05-0.35-0.14-0.47c-0.09-0.12-0.21-0.22-0.34-0.28c-0.14-0.07-0.29-0.11-0.46-0.13
		c-0.17-0.02-0.33-0.03-0.48-0.03c-0.42,0-0.77,0.09-1.04,0.26c-0.27,0.18-0.43,0.45-0.46,0.82h-1.5c0.03-0.44,0.13-0.8,0.32-1.09
		c0.18-0.29,0.42-0.52,0.71-0.7c0.29-0.18,0.61-0.3,0.97-0.37c0.36-0.07,0.73-0.11,1.11-0.11c0.33,0,0.66,0.04,0.99,0.11
		c0.33,0.07,0.62,0.18,0.88,0.34s0.47,0.36,0.63,0.61s0.24,0.56,0.24,0.92V11.77z M261.96,9.87c-0.23,0.15-0.51,0.24-0.84,0.27
		c-0.33,0.03-0.67,0.08-1,0.14c-0.16,0.03-0.31,0.06-0.46,0.11c-0.15,0.05-0.28,0.11-0.4,0.2c-0.12,0.08-0.21,0.19-0.27,0.33
		c-0.07,0.14-0.1,0.3-0.1,0.5c0,0.17,0.05,0.31,0.15,0.42s0.21,0.21,0.35,0.27c0.14,0.07,0.29,0.11,0.45,0.14
		c0.16,0.03,0.31,0.04,0.44,0.04c0.17,0,0.35-0.02,0.54-0.07c0.19-0.04,0.38-0.12,0.55-0.22c0.17-0.11,0.31-0.24,0.43-0.4
		s0.17-0.36,0.17-0.6V9.87z"/>
	<path class="st0" d="M271.51,13.29h-1.43v-0.92h-0.03c-0.2,0.4-0.5,0.68-0.88,0.85c-0.39,0.17-0.8,0.26-1.23,0.26
		c-0.54,0-1-0.09-1.41-0.28c-0.4-0.19-0.73-0.45-1-0.77c-0.26-0.33-0.46-0.71-0.59-1.16s-0.2-0.92-0.2-1.43
		c0-0.62,0.08-1.15,0.25-1.6s0.39-0.82,0.67-1.11c0.28-0.29,0.59-0.5,0.95-0.64s0.72-0.2,1.09-0.2c0.21,0,0.43,0.02,0.65,0.06
		c0.22,0.04,0.43,0.1,0.63,0.19c0.2,0.09,0.39,0.2,0.56,0.34c0.17,0.14,0.31,0.3,0.43,0.48h0.03V3.87h1.5V13.29z M266.26,9.95
		c0,0.29,0.04,0.58,0.11,0.86s0.19,0.53,0.34,0.75c0.15,0.22,0.35,0.4,0.59,0.53s0.52,0.2,0.84,0.2c0.33,0,0.62-0.07,0.87-0.21
		c0.24-0.14,0.44-0.33,0.59-0.55c0.15-0.23,0.27-0.49,0.34-0.77c0.08-0.29,0.11-0.58,0.11-0.88c0-0.76-0.17-1.35-0.51-1.77
		c-0.34-0.42-0.8-0.63-1.38-0.63c-0.35,0-0.65,0.07-0.89,0.22s-0.44,0.33-0.59,0.57c-0.15,0.23-0.26,0.5-0.33,0.79
		C266.29,9.34,266.26,9.64,266.26,9.95z"/>
	<path class="st0" d="M274.32,10.27c0,0.26,0.04,0.52,0.11,0.77c0.07,0.25,0.19,0.46,0.34,0.65s0.34,0.33,0.57,0.44
		c0.23,0.11,0.5,0.17,0.82,0.17c0.44,0,0.79-0.09,1.06-0.28c0.27-0.19,0.47-0.47,0.6-0.85h1.43c-0.08,0.37-0.22,0.7-0.41,0.99
		c-0.19,0.29-0.43,0.53-0.7,0.73s-0.58,0.35-0.92,0.45c-0.34,0.1-0.69,0.15-1.06,0.15c-0.54,0-1.01-0.09-1.43-0.26
		c-0.41-0.18-0.76-0.42-1.05-0.74s-0.5-0.7-0.65-1.13c-0.15-0.44-0.22-0.92-0.22-1.45c0-0.48,0.08-0.94,0.23-1.38
		c0.15-0.44,0.37-0.82,0.66-1.15s0.63-0.59,1.04-0.79c0.41-0.19,0.86-0.29,1.37-0.29c0.54,0,1.02,0.11,1.45,0.34
		s0.78,0.52,1.06,0.89c0.28,0.37,0.49,0.79,0.61,1.27c0.13,0.48,0.16,0.97,0.1,1.49H274.32z M277.84,9.28
		c-0.02-0.24-0.07-0.47-0.15-0.69c-0.08-0.22-0.2-0.41-0.34-0.57c-0.14-0.16-0.32-0.29-0.53-0.4c-0.21-0.1-0.44-0.15-0.69-0.15
		c-0.26,0-0.5,0.05-0.72,0.14s-0.4,0.22-0.55,0.38c-0.15,0.16-0.28,0.35-0.37,0.57c-0.09,0.22-0.14,0.46-0.15,0.71H277.84z"/>
	<path class="st0" d="M281.62,11.1c0.04,0.44,0.21,0.75,0.5,0.92c0.29,0.18,0.64,0.26,1.04,0.26c0.14,0,0.3-0.01,0.48-0.03
		c0.18-0.02,0.35-0.06,0.51-0.12s0.29-0.15,0.39-0.27c0.1-0.12,0.15-0.27,0.14-0.47c-0.01-0.19-0.08-0.35-0.21-0.48
		c-0.13-0.12-0.3-0.22-0.51-0.3s-0.44-0.14-0.71-0.19c-0.26-0.05-0.53-0.11-0.81-0.17c-0.28-0.06-0.55-0.14-0.81-0.22
		c-0.26-0.09-0.49-0.21-0.7-0.36c-0.21-0.15-0.37-0.34-0.5-0.57c-0.12-0.23-0.19-0.52-0.19-0.86c0-0.37,0.09-0.68,0.27-0.93
		c0.18-0.25,0.41-0.45,0.69-0.61c0.28-0.15,0.59-0.26,0.92-0.32c0.34-0.06,0.66-0.09,0.97-0.09c0.35,0,0.69,0.04,1.01,0.11
		c0.32,0.08,0.61,0.2,0.87,0.36s0.48,0.38,0.65,0.65c0.17,0.27,0.28,0.59,0.32,0.97h-1.57c-0.07-0.36-0.24-0.6-0.5-0.73
		c-0.26-0.12-0.56-0.18-0.89-0.18c-0.11,0-0.23,0.01-0.38,0.03c-0.15,0.02-0.28,0.05-0.41,0.1c-0.13,0.05-0.24,0.12-0.32,0.21
		c-0.09,0.09-0.13,0.21-0.13,0.36c0,0.19,0.06,0.33,0.19,0.45c0.13,0.11,0.29,0.21,0.5,0.28c0.21,0.07,0.44,0.14,0.71,0.19
		c0.26,0.05,0.54,0.11,0.82,0.17c0.27,0.06,0.54,0.14,0.81,0.22c0.26,0.09,0.5,0.21,0.71,0.36s0.37,0.34,0.5,0.57
		c0.13,0.23,0.19,0.51,0.19,0.84c0,0.41-0.09,0.75-0.28,1.03c-0.19,0.28-0.42,0.51-0.72,0.69c-0.29,0.18-0.62,0.3-0.98,0.38
		c-0.36,0.08-0.72,0.12-1.07,0.12c-0.43,0-0.83-0.05-1.19-0.14c-0.37-0.1-0.68-0.25-0.95-0.44c-0.27-0.2-0.48-0.44-0.63-0.74
		c-0.15-0.29-0.24-0.64-0.24-1.05H281.62z"/>
	<path class="st0" d="M290.26,6.47h1.65l1.78,5.09h0.03l1.73-5.09h1.57l-2.65,7.19c-0.12,0.31-0.24,0.6-0.36,0.88
		c-0.12,0.28-0.26,0.53-0.44,0.75c-0.17,0.21-0.38,0.39-0.64,0.51c-0.26,0.13-0.58,0.19-0.98,0.19c-0.35,0-0.7-0.03-1.04-0.08v-1.27
		c0.12,0.02,0.24,0.04,0.36,0.06c0.11,0.02,0.23,0.03,0.36,0.03c0.18,0,0.32-0.02,0.44-0.07c0.11-0.04,0.21-0.11,0.28-0.19
		c0.08-0.08,0.14-0.18,0.19-0.3s0.1-0.25,0.15-0.4l0.17-0.53L290.26,6.47z"/>
	<path class="st0" d="M94.6,18.37h6.78v1.43h-5.13v2.47H101v1.35h-4.75v2.76h5.23v1.43H94.6V18.37z"/>
	<path class="st0" d="M102.7,20.97h1.43v1l0.03,0.03c0.23-0.38,0.53-0.67,0.9-0.89c0.37-0.22,0.78-0.32,1.23-0.32
		c0.75,0,1.34,0.19,1.77,0.58c0.43,0.39,0.65,0.97,0.65,1.74v4.69h-1.5V23.5c-0.02-0.54-0.13-0.93-0.34-1.17s-0.54-0.36-0.99-0.36
		c-0.25,0-0.48,0.05-0.69,0.14c-0.2,0.09-0.37,0.22-0.51,0.38s-0.25,0.35-0.33,0.57s-0.12,0.45-0.12,0.7v4.03h-1.5V20.97z"/>
	<path class="st0" d="M111.41,25.6c0.04,0.44,0.21,0.75,0.5,0.92c0.29,0.18,0.64,0.26,1.04,0.26c0.14,0,0.3-0.01,0.48-0.03
		c0.18-0.02,0.35-0.06,0.51-0.12s0.29-0.15,0.39-0.27c0.1-0.12,0.15-0.27,0.14-0.47c-0.01-0.19-0.08-0.35-0.21-0.48
		s-0.3-0.22-0.51-0.3s-0.44-0.14-0.71-0.19c-0.26-0.05-0.53-0.11-0.81-0.17c-0.28-0.06-0.55-0.14-0.81-0.22
		c-0.26-0.09-0.49-0.21-0.7-0.36c-0.21-0.15-0.37-0.34-0.5-0.57c-0.12-0.23-0.19-0.52-0.19-0.86c0-0.37,0.09-0.68,0.27-0.93
		c0.18-0.25,0.41-0.45,0.69-0.61c0.28-0.15,0.59-0.26,0.92-0.32c0.34-0.06,0.66-0.09,0.97-0.09c0.35,0,0.69,0.04,1.01,0.11
		c0.32,0.08,0.61,0.2,0.87,0.36s0.48,0.38,0.65,0.65c0.17,0.27,0.28,0.59,0.32,0.97h-1.57c-0.07-0.36-0.24-0.6-0.5-0.73
		c-0.26-0.12-0.56-0.18-0.89-0.18c-0.11,0-0.23,0.01-0.38,0.03c-0.15,0.02-0.28,0.05-0.41,0.1c-0.13,0.05-0.24,0.12-0.32,0.21
		c-0.09,0.09-0.13,0.21-0.13,0.36c0,0.19,0.06,0.33,0.19,0.45c0.13,0.11,0.29,0.21,0.5,0.28c0.21,0.07,0.44,0.14,0.71,0.19
		c0.26,0.05,0.54,0.11,0.82,0.17c0.27,0.06,0.54,0.14,0.81,0.22c0.26,0.09,0.5,0.21,0.71,0.36s0.37,0.34,0.5,0.57
		c0.13,0.23,0.19,0.51,0.19,0.84c0,0.41-0.09,0.75-0.28,1.03c-0.19,0.28-0.42,0.51-0.72,0.69c-0.29,0.18-0.62,0.3-0.98,0.38
		c-0.36,0.08-0.72,0.12-1.07,0.12c-0.43,0-0.83-0.05-1.19-0.14c-0.37-0.1-0.68-0.25-0.95-0.44c-0.27-0.2-0.48-0.44-0.63-0.74
		c-0.15-0.29-0.24-0.64-0.24-1.05H111.41z"/>
	<path class="st0" d="M118.3,24.77c0,0.26,0.04,0.52,0.11,0.77c0.08,0.25,0.19,0.46,0.34,0.65c0.15,0.18,0.34,0.33,0.57,0.44
		s0.5,0.17,0.82,0.17c0.44,0,0.79-0.09,1.06-0.28s0.47-0.47,0.6-0.85h1.43c-0.08,0.37-0.22,0.7-0.41,0.99s-0.43,0.53-0.7,0.73
		c-0.27,0.2-0.58,0.35-0.92,0.45c-0.34,0.1-0.69,0.15-1.06,0.15c-0.54,0-1.01-0.09-1.43-0.26c-0.41-0.18-0.76-0.42-1.05-0.74
		c-0.29-0.32-0.5-0.7-0.65-1.13c-0.14-0.44-0.22-0.92-0.22-1.45c0-0.48,0.08-0.94,0.23-1.38c0.15-0.44,0.37-0.82,0.66-1.15
		c0.29-0.33,0.63-0.59,1.04-0.79c0.4-0.19,0.86-0.29,1.37-0.29c0.54,0,1.02,0.11,1.45,0.34c0.43,0.22,0.78,0.52,1.06,0.89
		c0.28,0.37,0.49,0.79,0.61,1.27c0.13,0.48,0.16,0.97,0.1,1.49H118.3z M121.81,23.78c-0.02-0.24-0.07-0.47-0.15-0.69
		c-0.08-0.22-0.2-0.41-0.34-0.57s-0.32-0.29-0.53-0.4c-0.21-0.1-0.44-0.15-0.69-0.15c-0.26,0-0.5,0.05-0.72,0.14
		s-0.4,0.22-0.55,0.38s-0.28,0.35-0.37,0.57c-0.09,0.22-0.14,0.46-0.15,0.71H121.81z"/>
	<path class="st0" d="M124.47,20.97h1.43v1l0.03,0.03c0.23-0.38,0.53-0.67,0.9-0.89c0.37-0.22,0.78-0.32,1.23-0.32
		c0.75,0,1.34,0.19,1.77,0.58c0.43,0.39,0.65,0.97,0.65,1.74v4.69h-1.5V23.5c-0.02-0.54-0.13-0.93-0.34-1.17s-0.54-0.36-0.99-0.36
		c-0.25,0-0.48,0.05-0.69,0.14c-0.2,0.09-0.37,0.22-0.51,0.38s-0.25,0.35-0.33,0.57s-0.12,0.45-0.12,0.7v4.03h-1.5V20.97z
		 M129.79,18.29c-0.04,0.21-0.09,0.41-0.15,0.59c-0.07,0.18-0.16,0.34-0.28,0.48c-0.11,0.14-0.25,0.25-0.42,0.33
		c-0.17,0.08-0.37,0.12-0.61,0.12c-0.15,0-0.31-0.02-0.48-0.07c-0.17-0.05-0.33-0.11-0.5-0.18c-0.2-0.09-0.37-0.15-0.49-0.19
		s-0.26-0.05-0.41-0.05c-0.16,0-0.28,0.05-0.38,0.14c-0.09,0.09-0.16,0.23-0.19,0.4h-0.75c0.03-0.17,0.07-0.34,0.14-0.51
		c0.07-0.18,0.16-0.34,0.28-0.48s0.25-0.26,0.41-0.36s0.34-0.14,0.54-0.14c0.17,0,0.32,0.02,0.46,0.05c0.14,0.03,0.34,0.1,0.61,0.22
		c0.18,0.08,0.34,0.14,0.46,0.18c0.12,0.04,0.24,0.06,0.36,0.06c0.19,0,0.34-0.05,0.44-0.16c0.1-0.11,0.17-0.25,0.22-0.42H129.79z"
		/>
	<path class="st0" d="M137.76,26.27c0,0.18,0.02,0.32,0.07,0.4c0.05,0.08,0.14,0.12,0.28,0.12c0.04,0,0.1,0,0.16,0
		s0.13-0.01,0.21-0.03v1.04c-0.05,0.02-0.12,0.04-0.2,0.06c-0.08,0.02-0.17,0.04-0.26,0.06s-0.18,0.03-0.26,0.04
		s-0.16,0.01-0.22,0.01c-0.31,0-0.56-0.06-0.77-0.18s-0.33-0.34-0.4-0.65c-0.3,0.29-0.67,0.5-1.1,0.63c-0.44,0.13-0.86,0.2-1.26,0.2
		c-0.31,0-0.6-0.04-0.88-0.12c-0.28-0.08-0.53-0.21-0.75-0.37c-0.22-0.16-0.39-0.37-0.51-0.62c-0.13-0.25-0.19-0.54-0.19-0.88
		c0-0.42,0.08-0.77,0.23-1.03c0.15-0.26,0.36-0.47,0.61-0.62c0.25-0.15,0.53-0.26,0.84-0.32c0.31-0.07,0.63-0.12,0.94-0.15
		c0.27-0.05,0.53-0.09,0.78-0.11c0.25-0.02,0.46-0.06,0.65-0.11s0.34-0.13,0.45-0.24c0.11-0.11,0.17-0.27,0.17-0.5
		c0-0.19-0.05-0.35-0.14-0.47c-0.09-0.12-0.21-0.22-0.34-0.28c-0.14-0.07-0.29-0.11-0.46-0.13c-0.17-0.02-0.33-0.03-0.48-0.03
		c-0.42,0-0.77,0.09-1.04,0.26c-0.27,0.18-0.43,0.45-0.46,0.82h-1.5c0.03-0.44,0.13-0.8,0.32-1.09c0.18-0.29,0.42-0.52,0.71-0.7
		c0.29-0.18,0.61-0.3,0.97-0.37c0.36-0.07,0.73-0.11,1.11-0.11c0.33,0,0.66,0.04,0.99,0.11c0.33,0.07,0.62,0.18,0.88,0.34
		c0.26,0.16,0.47,0.36,0.63,0.61s0.24,0.56,0.24,0.92V26.27z M136.25,24.37c-0.23,0.15-0.51,0.24-0.84,0.27
		c-0.33,0.03-0.67,0.08-1,0.14c-0.16,0.03-0.31,0.06-0.46,0.11c-0.15,0.05-0.28,0.11-0.4,0.2s-0.2,0.19-0.27,0.33s-0.1,0.3-0.1,0.5
		c0,0.17,0.05,0.31,0.14,0.42s0.21,0.21,0.35,0.27c0.14,0.07,0.29,0.11,0.45,0.14s0.31,0.04,0.44,0.04c0.17,0,0.35-0.02,0.54-0.07
		s0.38-0.12,0.55-0.22s0.31-0.24,0.43-0.4s0.17-0.36,0.17-0.6V24.37z"/>
	<path class="st0" d="M139.38,20.97h1.43v1l0.03,0.03c0.23-0.38,0.53-0.67,0.9-0.89c0.37-0.22,0.78-0.32,1.23-0.32
		c0.75,0,1.34,0.19,1.77,0.58c0.43,0.39,0.65,0.97,0.65,1.74v4.69h-1.5V23.5c-0.02-0.54-0.13-0.93-0.34-1.17s-0.54-0.36-0.99-0.36
		c-0.25,0-0.48,0.05-0.69,0.14c-0.2,0.09-0.37,0.22-0.51,0.38s-0.25,0.35-0.33,0.57s-0.12,0.45-0.12,0.7v4.03h-1.5V20.97z"/>
	<path class="st0" d="M146.72,20.97h5.54v1.06l-3.91,4.58h4.11v1.19h-6.01v-1.06l3.77-4.58h-3.51V20.97z"/>
	<path class="st0" d="M159.27,26.27c0,0.18,0.02,0.32,0.07,0.4c0.05,0.08,0.14,0.12,0.28,0.12c0.04,0,0.1,0,0.16,0
		s0.13-0.01,0.21-0.03v1.04c-0.05,0.02-0.12,0.04-0.2,0.06c-0.08,0.02-0.17,0.04-0.26,0.06s-0.18,0.03-0.26,0.04
		s-0.16,0.01-0.22,0.01c-0.31,0-0.56-0.06-0.77-0.18s-0.33-0.34-0.4-0.65c-0.3,0.29-0.67,0.5-1.1,0.63c-0.44,0.13-0.86,0.2-1.26,0.2
		c-0.31,0-0.6-0.04-0.88-0.12c-0.28-0.08-0.53-0.21-0.75-0.37c-0.22-0.16-0.39-0.37-0.51-0.62c-0.13-0.25-0.19-0.54-0.19-0.88
		c0-0.42,0.08-0.77,0.23-1.03c0.15-0.26,0.36-0.47,0.61-0.62c0.25-0.15,0.53-0.26,0.84-0.32c0.31-0.07,0.63-0.12,0.94-0.15
		c0.27-0.05,0.53-0.09,0.78-0.11c0.25-0.02,0.46-0.06,0.65-0.11s0.34-0.13,0.45-0.24c0.11-0.11,0.17-0.27,0.17-0.5
		c0-0.19-0.05-0.35-0.14-0.47c-0.09-0.12-0.21-0.22-0.34-0.28c-0.14-0.07-0.29-0.11-0.46-0.13c-0.17-0.02-0.33-0.03-0.48-0.03
		c-0.42,0-0.77,0.09-1.04,0.26c-0.27,0.18-0.43,0.45-0.46,0.82h-1.5c0.03-0.44,0.13-0.8,0.32-1.09c0.18-0.29,0.42-0.52,0.71-0.7
		c0.29-0.18,0.61-0.3,0.97-0.37c0.36-0.07,0.73-0.11,1.11-0.11c0.33,0,0.66,0.04,0.99,0.11c0.33,0.07,0.62,0.18,0.88,0.34
		c0.26,0.16,0.47,0.36,0.63,0.61s0.24,0.56,0.24,0.92V26.27z M157.77,24.37c-0.23,0.15-0.51,0.24-0.84,0.27
		c-0.33,0.03-0.67,0.08-1,0.14c-0.16,0.03-0.31,0.06-0.46,0.11c-0.15,0.05-0.28,0.11-0.4,0.2s-0.2,0.19-0.27,0.33s-0.1,0.3-0.1,0.5
		c0,0.17,0.05,0.31,0.14,0.42s0.21,0.21,0.35,0.27c0.14,0.07,0.29,0.11,0.45,0.14c0.16,0.03,0.31,0.04,0.44,0.04
		c0.17,0,0.35-0.02,0.54-0.07s0.38-0.12,0.55-0.22s0.31-0.24,0.43-0.4s0.17-0.36,0.17-0.6V24.37z"/>
	<path class="st0" d="M162.03,25.6c0.04,0.44,0.21,0.75,0.5,0.92c0.29,0.18,0.64,0.26,1.04,0.26c0.14,0,0.3-0.01,0.48-0.03
		c0.18-0.02,0.35-0.06,0.51-0.12c0.16-0.06,0.29-0.15,0.39-0.27c0.1-0.12,0.15-0.27,0.14-0.47c-0.01-0.19-0.08-0.35-0.21-0.48
		s-0.3-0.22-0.51-0.3c-0.21-0.08-0.44-0.14-0.71-0.19c-0.26-0.05-0.53-0.11-0.8-0.17c-0.28-0.06-0.55-0.14-0.81-0.22
		c-0.26-0.09-0.49-0.21-0.7-0.36c-0.21-0.15-0.37-0.34-0.5-0.57c-0.12-0.23-0.18-0.52-0.18-0.86c0-0.37,0.09-0.68,0.27-0.93
		s0.41-0.45,0.69-0.61c0.28-0.15,0.58-0.26,0.92-0.32s0.66-0.09,0.97-0.09c0.35,0,0.69,0.04,1.01,0.11c0.32,0.08,0.61,0.2,0.87,0.36
		c0.26,0.17,0.47,0.38,0.65,0.65c0.17,0.27,0.28,0.59,0.32,0.97h-1.57c-0.07-0.36-0.24-0.6-0.5-0.73c-0.26-0.12-0.56-0.18-0.89-0.18
		c-0.11,0-0.23,0.01-0.38,0.03c-0.14,0.02-0.28,0.05-0.41,0.1c-0.13,0.05-0.24,0.12-0.32,0.21c-0.09,0.09-0.13,0.21-0.13,0.36
		c0,0.19,0.06,0.33,0.19,0.45c0.13,0.11,0.29,0.21,0.5,0.28c0.21,0.07,0.44,0.14,0.71,0.19c0.26,0.05,0.54,0.11,0.82,0.17
		c0.27,0.06,0.54,0.14,0.8,0.22c0.26,0.09,0.5,0.21,0.71,0.36c0.21,0.15,0.37,0.34,0.5,0.57c0.13,0.23,0.19,0.51,0.19,0.84
		c0,0.41-0.09,0.75-0.28,1.03c-0.18,0.28-0.42,0.51-0.72,0.69c-0.29,0.18-0.62,0.3-0.98,0.38c-0.36,0.08-0.72,0.12-1.07,0.12
		c-0.43,0-0.83-0.05-1.2-0.14c-0.37-0.1-0.68-0.25-0.95-0.44c-0.27-0.2-0.48-0.44-0.63-0.74c-0.15-0.29-0.24-0.64-0.24-1.05H162.03z
		"/>
	<path class="st0" d="M174.15,18.37h1.75l3.63,9.42h-1.77l-0.88-2.5h-3.76l-0.88,2.5h-1.7L174.15,18.37z M173.57,24.04h2.88
		l-1.41-4.05H175L173.57,24.04z"/>
	<path class="st0" d="M180.22,20.97h1.41v1.32h0.03c0.04-0.18,0.13-0.36,0.26-0.54c0.13-0.18,0.28-0.34,0.46-0.48
		s0.38-0.26,0.6-0.35s0.44-0.13,0.67-0.13c0.18,0,0.3,0,0.36,0.01c0.07,0.01,0.13,0.02,0.21,0.03v1.45
		c-0.11-0.02-0.21-0.03-0.32-0.05c-0.11-0.01-0.22-0.02-0.32-0.02c-0.26,0-0.5,0.05-0.72,0.15s-0.42,0.25-0.59,0.45
		c-0.17,0.2-0.3,0.44-0.4,0.73c-0.1,0.29-0.15,0.62-0.15,1v3.25h-1.5V20.97z"/>
	<path class="st0" d="M184.18,20.97h1.13v-2.05h1.5v2.05h1.36v1.12h-1.36v3.64c0,0.16,0.01,0.29,0.02,0.41
		c0.01,0.12,0.04,0.21,0.09,0.29c0.05,0.08,0.12,0.14,0.22,0.18c0.1,0.04,0.23,0.06,0.4,0.06c0.11,0,0.21,0,0.32-0.01
		c0.11,0,0.21-0.02,0.32-0.05v1.16c-0.17,0.02-0.33,0.04-0.49,0.05c-0.16,0.02-0.32,0.03-0.49,0.03c-0.4,0-0.71-0.04-0.96-0.11
		c-0.24-0.08-0.43-0.19-0.57-0.33c-0.14-0.15-0.23-0.33-0.28-0.55c-0.05-0.22-0.08-0.47-0.09-0.75v-4.03h-1.13V20.97z"/>
	<path class="st0" d="M190.49,18.13h1.78l-1.88,1.89h-1.1L190.49,18.13z M189.3,27.79v-6.82h1.5v6.82H189.3z"/>
	<path class="st0" d="M193.58,25.6c0.04,0.44,0.21,0.75,0.5,0.92c0.29,0.18,0.64,0.26,1.04,0.26c0.14,0,0.3-0.01,0.48-0.03
		c0.18-0.02,0.35-0.06,0.51-0.12s0.29-0.15,0.39-0.27c0.1-0.12,0.15-0.27,0.14-0.47c-0.01-0.19-0.08-0.35-0.21-0.48
		s-0.3-0.22-0.51-0.3s-0.44-0.14-0.71-0.19c-0.26-0.05-0.53-0.11-0.81-0.17c-0.28-0.06-0.55-0.14-0.81-0.22
		c-0.26-0.09-0.49-0.21-0.7-0.36c-0.21-0.15-0.37-0.34-0.5-0.57c-0.12-0.23-0.19-0.52-0.19-0.86c0-0.37,0.09-0.68,0.27-0.93
		c0.18-0.25,0.41-0.45,0.69-0.61c0.28-0.15,0.59-0.26,0.92-0.32c0.34-0.06,0.66-0.09,0.97-0.09c0.35,0,0.69,0.04,1.01,0.11
		c0.32,0.08,0.61,0.2,0.87,0.36s0.48,0.38,0.65,0.65c0.17,0.27,0.28,0.59,0.32,0.97h-1.57c-0.07-0.36-0.24-0.6-0.5-0.73
		c-0.26-0.12-0.56-0.18-0.89-0.18c-0.11,0-0.23,0.01-0.38,0.03c-0.15,0.02-0.28,0.05-0.41,0.1c-0.13,0.05-0.24,0.12-0.32,0.21
		c-0.09,0.09-0.13,0.21-0.13,0.36c0,0.19,0.06,0.33,0.19,0.45c0.13,0.11,0.29,0.21,0.5,0.28c0.21,0.07,0.44,0.14,0.71,0.19
		c0.26,0.05,0.54,0.11,0.82,0.17c0.27,0.06,0.54,0.14,0.81,0.22c0.26,0.09,0.5,0.21,0.71,0.36s0.37,0.34,0.5,0.57
		c0.13,0.23,0.19,0.51,0.19,0.84c0,0.41-0.09,0.75-0.28,1.03c-0.19,0.28-0.42,0.51-0.72,0.69c-0.29,0.18-0.62,0.3-0.98,0.38
		c-0.36,0.08-0.72,0.12-1.07,0.12c-0.43,0-0.83-0.05-1.19-0.14c-0.37-0.1-0.68-0.25-0.95-0.44c-0.27-0.2-0.48-0.44-0.63-0.74
		c-0.15-0.29-0.24-0.64-0.24-1.05H193.58z"/>
	<path class="st0" d="M198.61,20.97h1.13v-2.05h1.5v2.05h1.36v1.12h-1.36v3.64c0,0.16,0.01,0.29,0.02,0.41
		c0.01,0.12,0.04,0.21,0.09,0.29c0.05,0.08,0.12,0.14,0.22,0.18c0.1,0.04,0.23,0.06,0.4,0.06c0.11,0,0.21,0,0.32-0.01
		c0.11,0,0.21-0.02,0.32-0.05v1.16c-0.17,0.02-0.33,0.04-0.49,0.05c-0.16,0.02-0.32,0.03-0.49,0.03c-0.4,0-0.71-0.04-0.96-0.11
		c-0.24-0.08-0.43-0.19-0.57-0.33c-0.14-0.15-0.23-0.33-0.28-0.55c-0.05-0.22-0.08-0.47-0.09-0.75v-4.03h-1.13V20.97z"/>
	<path class="st0" d="M203.73,18.37h1.5v1.43h-1.5V18.37z M203.73,20.97h1.5v6.82h-1.5V20.97z"/>
	<path class="st0" d="M211.48,23.25c-0.06-0.42-0.23-0.74-0.51-0.96c-0.28-0.21-0.63-0.32-1.05-0.32c-0.19,0-0.4,0.03-0.62,0.1
		c-0.22,0.07-0.42,0.19-0.61,0.37c-0.19,0.18-0.34,0.43-0.46,0.75c-0.12,0.32-0.18,0.74-0.18,1.26c0,0.28,0.03,0.56,0.1,0.84
		c0.07,0.28,0.17,0.53,0.32,0.75s0.33,0.4,0.56,0.53c0.23,0.14,0.51,0.21,0.83,0.21c0.44,0,0.8-0.14,1.09-0.41
		c0.29-0.27,0.46-0.66,0.54-1.15h1.5c-0.14,0.89-0.48,1.57-1.01,2.04c-0.53,0.47-1.24,0.71-2.12,0.71c-0.54,0-1.01-0.09-1.42-0.27
		c-0.41-0.18-0.75-0.43-1.04-0.74c-0.28-0.31-0.5-0.68-0.64-1.12c-0.14-0.43-0.22-0.9-0.22-1.4c0-0.51,0.07-0.99,0.21-1.44
		c0.14-0.45,0.35-0.84,0.63-1.17c0.28-0.33,0.63-0.59,1.05-0.78c0.42-0.19,0.91-0.28,1.47-0.28c0.4,0,0.77,0.05,1.13,0.15
		c0.36,0.1,0.67,0.25,0.95,0.46c0.28,0.2,0.5,0.46,0.68,0.77c0.18,0.31,0.28,0.67,0.32,1.1H211.48z"/>
	<path class="st0" d="M219.93,26.27c0,0.18,0.02,0.32,0.07,0.4c0.05,0.08,0.14,0.12,0.28,0.12c0.04,0,0.1,0,0.16,0
		s0.13-0.01,0.21-0.03v1.04c-0.05,0.02-0.12,0.04-0.2,0.06c-0.08,0.02-0.17,0.04-0.26,0.06s-0.18,0.03-0.26,0.04
		s-0.16,0.01-0.22,0.01c-0.31,0-0.56-0.06-0.77-0.18s-0.33-0.34-0.4-0.65c-0.3,0.29-0.67,0.5-1.1,0.63c-0.44,0.13-0.86,0.2-1.26,0.2
		c-0.31,0-0.6-0.04-0.88-0.12c-0.28-0.08-0.53-0.21-0.75-0.37c-0.22-0.16-0.39-0.37-0.51-0.62c-0.13-0.25-0.19-0.54-0.19-0.88
		c0-0.42,0.08-0.77,0.23-1.03c0.15-0.26,0.36-0.47,0.61-0.62c0.25-0.15,0.53-0.26,0.84-0.32c0.31-0.07,0.63-0.12,0.94-0.15
		c0.27-0.05,0.53-0.09,0.78-0.11c0.25-0.02,0.46-0.06,0.65-0.11s0.34-0.13,0.45-0.24c0.11-0.11,0.17-0.27,0.17-0.5
		c0-0.19-0.05-0.35-0.14-0.47c-0.09-0.12-0.21-0.22-0.34-0.28c-0.14-0.07-0.29-0.11-0.46-0.13c-0.17-0.02-0.33-0.03-0.48-0.03
		c-0.42,0-0.77,0.09-1.04,0.26c-0.27,0.18-0.43,0.45-0.46,0.82h-1.5c0.03-0.44,0.13-0.8,0.32-1.09c0.18-0.29,0.42-0.52,0.71-0.7
		c0.29-0.18,0.61-0.3,0.97-0.37c0.36-0.07,0.73-0.11,1.11-0.11c0.33,0,0.66,0.04,0.99,0.11c0.33,0.07,0.62,0.18,0.88,0.34
		c0.26,0.16,0.47,0.36,0.63,0.61s0.24,0.56,0.24,0.92V26.27z M218.42,24.37c-0.23,0.15-0.51,0.24-0.84,0.27
		c-0.33,0.03-0.67,0.08-1,0.14c-0.16,0.03-0.31,0.06-0.46,0.11c-0.15,0.05-0.28,0.11-0.4,0.2s-0.2,0.19-0.27,0.33s-0.1,0.3-0.1,0.5
		c0,0.17,0.05,0.31,0.14,0.42s0.21,0.21,0.35,0.27c0.14,0.07,0.29,0.11,0.45,0.14s0.31,0.04,0.44,0.04c0.17,0,0.35-0.02,0.54-0.07
		s0.38-0.12,0.55-0.22s0.31-0.24,0.43-0.4s0.17-0.36,0.17-0.6V24.37z"/>
	<path class="st0" d="M222.69,25.6c0.04,0.44,0.21,0.75,0.5,0.92c0.29,0.18,0.64,0.26,1.04,0.26c0.14,0,0.3-0.01,0.48-0.03
		c0.18-0.02,0.35-0.06,0.51-0.12c0.16-0.06,0.29-0.15,0.39-0.27c0.1-0.12,0.15-0.27,0.14-0.47c-0.01-0.19-0.08-0.35-0.21-0.48
		s-0.3-0.22-0.51-0.3c-0.21-0.08-0.44-0.14-0.71-0.19c-0.26-0.05-0.53-0.11-0.8-0.17c-0.28-0.06-0.55-0.14-0.81-0.22
		c-0.26-0.09-0.49-0.21-0.7-0.36c-0.21-0.15-0.37-0.34-0.5-0.57c-0.12-0.23-0.18-0.52-0.18-0.86c0-0.37,0.09-0.68,0.27-0.93
		s0.41-0.45,0.69-0.61c0.28-0.15,0.58-0.26,0.92-0.32s0.66-0.09,0.97-0.09c0.35,0,0.69,0.04,1.01,0.11c0.32,0.08,0.61,0.2,0.87,0.36
		c0.26,0.17,0.47,0.38,0.65,0.65s0.28,0.59,0.32,0.97h-1.57c-0.07-0.36-0.24-0.6-0.5-0.73c-0.26-0.12-0.56-0.18-0.89-0.18
		c-0.11,0-0.23,0.01-0.38,0.03c-0.14,0.02-0.28,0.05-0.41,0.1c-0.13,0.05-0.24,0.12-0.32,0.21c-0.09,0.09-0.13,0.21-0.13,0.36
		c0,0.19,0.06,0.33,0.19,0.45c0.13,0.11,0.29,0.21,0.5,0.28c0.21,0.07,0.44,0.14,0.71,0.19c0.26,0.05,0.54,0.11,0.82,0.17
		c0.27,0.06,0.54,0.14,0.8,0.22c0.26,0.09,0.5,0.21,0.71,0.36c0.21,0.15,0.37,0.34,0.5,0.57c0.13,0.23,0.19,0.51,0.19,0.84
		c0,0.41-0.09,0.75-0.28,1.03c-0.18,0.28-0.42,0.51-0.72,0.69c-0.29,0.18-0.62,0.3-0.98,0.38c-0.36,0.08-0.72,0.12-1.07,0.12
		c-0.43,0-0.83-0.05-1.2-0.14c-0.37-0.1-0.68-0.25-0.95-0.44c-0.27-0.2-0.48-0.44-0.63-0.74c-0.15-0.29-0.24-0.64-0.24-1.05H222.69z
		"/>
	<path class="st0" d="M233.37,24.65c0,0.36,0.06,0.67,0.19,0.92c0.12,0.26,0.29,0.46,0.51,0.63c0.22,0.16,0.47,0.28,0.76,0.36
		c0.29,0.08,0.6,0.11,0.93,0.11c0.36,0,0.67-0.04,0.92-0.12c0.25-0.08,0.46-0.19,0.62-0.32c0.16-0.13,0.27-0.28,0.34-0.46
		s0.11-0.34,0.11-0.52c0-0.36-0.08-0.63-0.24-0.8c-0.16-0.17-0.34-0.29-0.54-0.36c-0.33-0.12-0.72-0.24-1.17-0.35
		c-0.44-0.11-0.99-0.25-1.64-0.43c-0.4-0.11-0.74-0.24-1.01-0.42c-0.27-0.17-0.48-0.36-0.64-0.57c-0.16-0.21-0.27-0.44-0.34-0.67
		c-0.07-0.24-0.1-0.48-0.1-0.73c0-0.48,0.1-0.89,0.3-1.23s0.46-0.64,0.79-0.86c0.33-0.23,0.7-0.4,1.11-0.51
		c0.41-0.11,0.83-0.17,1.25-0.17c0.49,0,0.96,0.06,1.39,0.19c0.44,0.13,0.82,0.32,1.15,0.57c0.33,0.26,0.59,0.57,0.79,0.94
		s0.29,0.81,0.29,1.3h-1.65c-0.04-0.61-0.25-1.04-0.62-1.29c-0.37-0.25-0.84-0.38-1.41-0.38c-0.19,0-0.39,0.02-0.59,0.06
		c-0.2,0.04-0.39,0.11-0.55,0.2c-0.17,0.09-0.31,0.22-0.42,0.38c-0.11,0.16-0.17,0.36-0.17,0.59c0,0.33,0.1,0.6,0.31,0.79
		c0.21,0.19,0.48,0.33,0.81,0.43c0.04,0.01,0.17,0.05,0.42,0.11c0.24,0.07,0.51,0.14,0.81,0.22c0.3,0.08,0.59,0.16,0.88,0.23
		c0.29,0.08,0.49,0.13,0.61,0.17c0.31,0.1,0.58,0.23,0.8,0.4c0.23,0.17,0.42,0.36,0.57,0.57c0.15,0.22,0.27,0.45,0.34,0.69
		c0.07,0.25,0.11,0.49,0.11,0.74c0,0.53-0.11,0.98-0.32,1.35c-0.21,0.38-0.5,0.68-0.85,0.92c-0.35,0.24-0.75,0.41-1.2,0.52
		c-0.45,0.11-0.91,0.17-1.37,0.17c-0.54,0-1.04-0.07-1.52-0.2c-0.47-0.13-0.89-0.33-1.24-0.61c-0.35-0.27-0.63-0.62-0.84-1.05
		c-0.21-0.43-0.32-0.93-0.33-1.51H233.37z"/>
	<path class="st0" d="M246.62,27.79h-1.48v-0.95h-0.03c-0.18,0.34-0.46,0.62-0.83,0.83c-0.37,0.21-0.74,0.31-1.12,0.31
		c-0.9,0-1.55-0.22-1.95-0.67s-0.6-1.12-0.6-2.01v-4.33h1.5v4.18c0,0.6,0.11,1.02,0.34,1.27c0.23,0.25,0.55,0.37,0.96,0.37
		c0.32,0,0.58-0.05,0.79-0.15c0.21-0.1,0.38-0.23,0.51-0.39c0.13-0.16,0.23-0.36,0.28-0.59s0.09-0.48,0.09-0.74v-3.96h1.5V27.79z"/>
	<path class="st0" d="M248.24,20.97h1.43v0.92h0.03c0.21-0.4,0.51-0.68,0.88-0.85c0.38-0.17,0.79-0.26,1.23-0.26
		c0.54,0,1,0.09,1.41,0.28c0.4,0.19,0.73,0.45,1,0.78s0.46,0.71,0.59,1.15c0.13,0.44,0.2,0.91,0.2,1.41c0,0.46-0.06,0.9-0.18,1.33
		c-0.12,0.43-0.3,0.81-0.54,1.14s-0.55,0.59-0.92,0.79c-0.37,0.2-0.81,0.3-1.31,0.3c-0.22,0-0.44-0.02-0.66-0.06
		c-0.22-0.04-0.43-0.1-0.63-0.19s-0.39-0.2-0.56-0.34c-0.17-0.14-0.32-0.3-0.43-0.48h-0.03v3.41h-1.5V20.97z M253.5,24.39
		c0-0.31-0.04-0.61-0.12-0.9c-0.08-0.29-0.2-0.55-0.36-0.77c-0.16-0.22-0.36-0.41-0.59-0.54c-0.24-0.14-0.51-0.21-0.82-0.21
		c-0.63,0-1.11,0.22-1.43,0.66c-0.32,0.44-0.48,1.03-0.48,1.76c0,0.34,0.04,0.66,0.13,0.96c0.08,0.29,0.21,0.55,0.38,0.76
		s0.37,0.38,0.6,0.5c0.23,0.12,0.5,0.19,0.81,0.19c0.34,0,0.63-0.07,0.87-0.21c0.24-0.14,0.43-0.32,0.59-0.55
		c0.15-0.22,0.26-0.48,0.33-0.77C253.46,24.98,253.5,24.69,253.5,24.39z"/>
	<path class="st0" d="M257.44,24.77c0,0.26,0.04,0.52,0.11,0.77c0.07,0.25,0.19,0.46,0.34,0.65s0.34,0.33,0.57,0.44
		c0.23,0.11,0.5,0.17,0.82,0.17c0.44,0,0.79-0.09,1.06-0.28c0.27-0.19,0.47-0.47,0.6-0.85h1.43c-0.08,0.37-0.22,0.7-0.41,0.99
		c-0.19,0.29-0.43,0.53-0.7,0.73s-0.58,0.35-0.92,0.45c-0.34,0.1-0.69,0.15-1.06,0.15c-0.54,0-1.01-0.09-1.43-0.26
		c-0.41-0.18-0.76-0.42-1.05-0.74s-0.5-0.7-0.65-1.13c-0.15-0.44-0.22-0.92-0.22-1.45c0-0.48,0.08-0.94,0.23-1.38
		c0.15-0.44,0.37-0.82,0.66-1.15s0.63-0.59,1.04-0.79c0.41-0.19,0.86-0.29,1.37-0.29c0.54,0,1.02,0.11,1.45,0.34
		s0.78,0.52,1.06,0.89c0.28,0.37,0.49,0.79,0.61,1.27c0.13,0.48,0.16,0.97,0.1,1.49H257.44z M260.95,23.78
		c-0.02-0.24-0.07-0.47-0.15-0.69c-0.08-0.22-0.2-0.41-0.34-0.57c-0.14-0.16-0.32-0.29-0.53-0.4c-0.21-0.1-0.44-0.15-0.69-0.15
		c-0.26,0-0.5,0.05-0.72,0.14s-0.4,0.22-0.55,0.38c-0.15,0.16-0.28,0.35-0.37,0.57c-0.09,0.22-0.14,0.46-0.15,0.71H260.95z"/>
	<path class="st0" d="M263.61,20.97h1.41v1.32h0.03c0.04-0.18,0.13-0.36,0.26-0.54c0.13-0.18,0.28-0.34,0.46-0.48
		c0.18-0.15,0.38-0.26,0.6-0.35c0.22-0.09,0.44-0.13,0.67-0.13c0.18,0,0.3,0,0.36,0.01c0.07,0.01,0.13,0.02,0.2,0.03v1.45
		c-0.11-0.02-0.21-0.03-0.32-0.05c-0.11-0.01-0.22-0.02-0.32-0.02c-0.25,0-0.5,0.05-0.72,0.15c-0.22,0.1-0.42,0.25-0.59,0.45
		c-0.17,0.2-0.3,0.44-0.4,0.73c-0.1,0.29-0.14,0.62-0.14,1v3.25h-1.5V20.97z"/>
	<path class="st0" d="M268.29,18.37h1.5v1.43h-1.5V18.37z M268.29,20.97h1.5v6.82h-1.5V20.97z"/>
	<path class="st0" d="M274.56,27.98c-0.55,0-1.03-0.09-1.46-0.27c-0.43-0.18-0.79-0.43-1.08-0.75c-0.29-0.32-0.52-0.69-0.67-1.13
		c-0.15-0.44-0.23-0.92-0.23-1.45c0-0.52,0.08-1,0.23-1.44c0.15-0.44,0.38-0.82,0.67-1.14c0.29-0.32,0.66-0.57,1.08-0.75
		c0.43-0.18,0.91-0.27,1.46-0.27c0.54,0,1.03,0.09,1.46,0.27c0.43,0.18,0.79,0.43,1.08,0.75c0.29,0.32,0.52,0.7,0.67,1.14
		s0.23,0.92,0.23,1.44c0,0.53-0.08,1.01-0.23,1.45c-0.15,0.44-0.38,0.82-0.67,1.13c-0.29,0.32-0.66,0.57-1.08,0.75
		C275.59,27.89,275.11,27.98,274.56,27.98z M274.56,26.79c0.33,0,0.62-0.07,0.87-0.21c0.25-0.14,0.45-0.33,0.61-0.55
		c0.16-0.23,0.27-0.49,0.35-0.77c0.07-0.29,0.11-0.58,0.11-0.88c0-0.29-0.04-0.58-0.11-0.87c-0.08-0.29-0.19-0.55-0.35-0.77
		c-0.16-0.22-0.36-0.41-0.61-0.55c-0.25-0.14-0.54-0.21-0.87-0.21c-0.33,0-0.62,0.07-0.87,0.21c-0.25,0.14-0.45,0.32-0.61,0.55
		c-0.16,0.22-0.28,0.48-0.35,0.77c-0.08,0.29-0.11,0.58-0.11,0.87c0,0.3,0.04,0.59,0.11,0.88c0.07,0.29,0.19,0.54,0.35,0.77
		s0.36,0.41,0.61,0.55C273.94,26.72,274.23,26.79,274.56,26.79z"/>
	<path class="st0" d="M279.26,20.97h1.41v1.32h0.03c0.04-0.18,0.13-0.36,0.26-0.54c0.13-0.18,0.28-0.34,0.46-0.48
		c0.18-0.15,0.38-0.26,0.6-0.35s0.44-0.13,0.67-0.13c0.18,0,0.3,0,0.36,0.01c0.07,0.01,0.13,0.02,0.21,0.03v1.45
		c-0.11-0.02-0.21-0.03-0.32-0.05c-0.11-0.01-0.22-0.02-0.32-0.02c-0.26,0-0.5,0.05-0.72,0.15s-0.42,0.25-0.59,0.45
		c-0.17,0.2-0.3,0.44-0.4,0.73c-0.1,0.29-0.15,0.62-0.15,1v3.25h-1.5V20.97z"/>
	<path class="st0" d="M284.85,24.77c0,0.26,0.04,0.52,0.11,0.77c0.08,0.25,0.19,0.46,0.34,0.65c0.15,0.18,0.34,0.33,0.57,0.44
		s0.5,0.17,0.82,0.17c0.44,0,0.79-0.09,1.06-0.28s0.47-0.47,0.6-0.85h1.43c-0.08,0.37-0.22,0.7-0.41,0.99s-0.43,0.53-0.7,0.73
		c-0.27,0.2-0.58,0.35-0.92,0.45c-0.34,0.1-0.69,0.15-1.06,0.15c-0.54,0-1.01-0.09-1.43-0.26c-0.41-0.18-0.76-0.42-1.05-0.74
		c-0.29-0.32-0.5-0.7-0.65-1.13c-0.14-0.44-0.22-0.92-0.22-1.45c0-0.48,0.08-0.94,0.23-1.38c0.15-0.44,0.37-0.82,0.66-1.15
		c0.29-0.33,0.63-0.59,1.04-0.79c0.4-0.19,0.86-0.29,1.37-0.29c0.54,0,1.02,0.11,1.45,0.34c0.43,0.22,0.78,0.52,1.06,0.89
		c0.28,0.37,0.49,0.79,0.61,1.27c0.13,0.48,0.16,0.97,0.1,1.49H284.85z M288.36,23.78c-0.02-0.24-0.07-0.47-0.15-0.69
		c-0.08-0.22-0.2-0.41-0.34-0.57s-0.32-0.29-0.53-0.4c-0.21-0.1-0.44-0.15-0.69-0.15c-0.26,0-0.5,0.05-0.72,0.14
		s-0.4,0.22-0.55,0.38s-0.28,0.35-0.37,0.57c-0.09,0.22-0.14,0.46-0.15,0.71H288.36z"/>
	<path class="st0" d="M292.14,25.6c0.04,0.44,0.21,0.75,0.5,0.92c0.29,0.18,0.64,0.26,1.04,0.26c0.14,0,0.3-0.01,0.48-0.03
		c0.18-0.02,0.35-0.06,0.51-0.12s0.29-0.15,0.39-0.27c0.1-0.12,0.15-0.27,0.14-0.47c-0.01-0.19-0.08-0.35-0.21-0.48
		s-0.3-0.22-0.51-0.3s-0.44-0.14-0.71-0.19c-0.26-0.05-0.53-0.11-0.81-0.17c-0.28-0.06-0.55-0.14-0.81-0.22
		c-0.26-0.09-0.49-0.21-0.7-0.36c-0.21-0.15-0.37-0.34-0.5-0.57c-0.12-0.23-0.19-0.52-0.19-0.86c0-0.37,0.09-0.68,0.27-0.93
		c0.18-0.25,0.41-0.45,0.69-0.61c0.28-0.15,0.59-0.26,0.92-0.32c0.34-0.06,0.66-0.09,0.97-0.09c0.35,0,0.69,0.04,1.01,0.11
		c0.32,0.08,0.61,0.2,0.87,0.36s0.48,0.38,0.65,0.65c0.17,0.27,0.28,0.59,0.32,0.97h-1.57c-0.07-0.36-0.24-0.6-0.5-0.73
		c-0.26-0.12-0.56-0.18-0.89-0.18c-0.11,0-0.23,0.01-0.38,0.03c-0.15,0.02-0.28,0.05-0.41,0.1c-0.13,0.05-0.24,0.12-0.32,0.21
		c-0.09,0.09-0.13,0.21-0.13,0.36c0,0.19,0.06,0.33,0.19,0.45c0.13,0.11,0.29,0.21,0.5,0.28c0.21,0.07,0.44,0.14,0.71,0.19
		c0.26,0.05,0.54,0.11,0.82,0.17c0.27,0.06,0.54,0.14,0.81,0.22c0.26,0.09,0.5,0.21,0.71,0.36s0.37,0.34,0.5,0.57
		c0.13,0.23,0.19,0.51,0.19,0.84c0,0.41-0.09,0.75-0.28,1.03c-0.19,0.28-0.42,0.51-0.72,0.69c-0.29,0.18-0.62,0.3-0.98,0.38
		c-0.36,0.08-0.72,0.12-1.07,0.12c-0.43,0-0.83-0.05-1.19-0.14c-0.37-0.1-0.68-0.25-0.95-0.44c-0.27-0.2-0.48-0.44-0.63-0.74
		c-0.15-0.29-0.24-0.64-0.24-1.05H292.14z"/>
</g>
<g>
	<path class="st0" d="M21.39,84.03c-0.13-0.85-0.79-3.45-3.78-3.45c-3.39,0-4.47,3.29-4.47,6.45c0,3.16,1.08,6.45,4.47,6.45
		c2.43,0,3.39-1.71,3.81-3.91h7.1c0,4.74-3.85,9.77-10.72,9.77c-7.6,0-11.9-5.36-11.9-12.3c0-7.4,4.67-12.3,11.9-12.3
		c6.44,0.03,10,3.42,10.62,9.31H21.39z"/>
	<path class="st0" d="M39.38,99.18c-6.41,0-9.31-4.24-9.31-8.98c0-4.73,2.89-8.94,9.31-8.94s9.31,4.21,9.31,8.94
		C48.69,94.94,45.8,99.18,39.38,99.18z M39.38,86c-2.47,0-2.79,2.4-2.79,4.21s0.33,4.24,2.79,4.24c2.47,0,2.8-2.43,2.8-4.24
		S41.85,86,39.38,86z"/>
	<path class="st0" d="M50.83,81.69h6.28v2.27h0.07c1.32-1.97,3.22-2.7,5.59-2.7c1.84,0,3.81,0.95,4.6,2.66
		c0.26-0.2,1.58-2.66,5.82-2.66c4.37,0,5.85,3.02,5.85,5.79v11.71h-6.51v-9.24c0-1.61-0.17-3.06-2.14-3.06
		c-1.64,0-2.2,1.28-2.2,3.06v9.24h-6.51v-9.24c0-1.61-0.16-3.06-2.14-3.06c-1.64,0-2.2,1.28-2.2,3.06v9.24h-6.51V81.69z"/>
	<path class="st0" d="M99.64,98.76h-6.28v-2.17h-0.07c-1.22,1.71-2.96,2.6-5.56,2.6c-3.06,0-5.85-1.88-5.85-5.79V81.69h6.51v8.94
		c0,1.97,0.23,3.35,2.14,3.35c1.12,0,2.6-0.56,2.6-3.29v-9.01h6.51V98.76z"/>
	<path class="st0" d="M102.53,81.69h6.28v2.17h0.07c1.22-1.71,2.96-2.6,5.56-2.6c3.06,0,5.85,1.87,5.85,5.79v11.71h-6.51v-8.94
		c0-1.97-0.23-3.35-2.14-3.35c-1.12,0-2.6,0.56-2.6,3.29v9.01h-6.51V81.69z"/>
	<path class="st0" d="M129.83,79.85h-6.51v-4.57h6.51V79.85z M123.32,81.69h6.51v17.07h-6.51V81.69z"/>
	<path class="st0" d="M150.65,98.76h-6.28v-1.87h-0.07c-0.82,1.08-1.81,2.3-5,2.3c-4.83,0-7.17-4.77-7.17-9.04
		c0-4.01,1.54-8.88,7.27-8.88c1.94,0,3.68,0.85,4.67,2.3h0.07v-8.29h6.51V98.76z M141.51,86c-2.33,0-2.86,2.2-2.86,4.21
		c0,2.04,0.53,4.24,2.86,4.24s2.86-2.2,2.86-4.24C144.37,88.2,143.84,86,141.51,86z"/>
	<path class="st0" d="M170.18,94.94c0,1.28,0.07,2.73,0.79,3.81h-6.64c-0.16-0.46-0.26-1.15-0.23-1.61h-0.07
		c-1.38,1.58-3.39,2.04-5.49,2.04c-3.29,0-6.02-1.58-6.02-5.16c0-5.39,6.31-5.2,9.63-5.82c0.89-0.16,1.78-0.43,1.78-1.51
		c0-1.15-1.08-1.58-2.14-1.58c-2.01,0-2.4,1.02-2.43,1.74h-6.05c0.1-2.4,1.28-3.81,2.96-4.6c1.64-0.79,3.81-0.99,5.82-0.99
		c8.16,0,8.09,3.39,8.09,6.67V94.94z M163.94,91.1c-0.79,0.4-1.68,0.62-2.57,0.82c-1.45,0.33-2.2,0.69-2.2,1.84
		c0,0.79,0.86,1.58,2.04,1.58c1.48,0,2.63-0.89,2.73-2.66V91.1z"/>
	<path class="st0" d="M190.74,98.76h-6.28v-1.87h-0.07c-0.82,1.08-1.81,2.3-5,2.3c-4.83,0-7.17-4.77-7.17-9.04
		c0-4.01,1.55-8.88,7.27-8.88c1.94,0,3.68,0.85,4.67,2.3h0.07v-8.29h6.51V98.76z M181.6,86c-2.33,0-2.86,2.2-2.86,4.21
		c0,2.04,0.53,4.24,2.86,4.24c2.33,0,2.86-2.2,2.86-4.24C184.46,88.2,183.93,86,181.6,86z"/>
	<path class="st0" d="M221.72,98.76h-6.28v-1.87h-0.07c-0.82,1.08-1.81,2.3-5,2.3c-4.83,0-7.17-4.77-7.17-9.04
		c0-4.01,1.55-8.88,7.27-8.88c1.94,0,3.68,0.85,4.67,2.3h0.07v-8.29h6.51V98.76z M212.58,86c-2.33,0-2.86,2.2-2.86,4.21
		c0,2.04,0.53,4.24,2.86,4.24c2.33,0,2.86-2.2,2.86-4.24C215.44,88.2,214.91,86,212.58,86z"/>
	<path class="st0" d="M230.11,91.69c0.16,1.94,1.28,3.32,3.32,3.32c1.05,0,2.2-0.39,2.73-1.22h6.08c-1.32,3.68-4.9,5.39-8.78,5.39
		c-5.46,0-9.57-3.22-9.57-8.91c0-4.97,3.62-9.01,9.01-9.01c6.77,0,9.7,3.78,9.7,10.42H230.11z M236.36,88.3
		c0-1.58-1.18-2.86-2.86-2.86c-1.94,0-3.06,1.02-3.35,2.86H236.36z"/>
	<path class="st0" d="M255.07,75.28h10.29l3.35,13.81h0.07l3.35-13.81h10.29v23.48h-6.84V83.7h-0.07l-4.08,15.06h-5.39l-4.08-15.06
		h-0.07v15.06h-6.84V75.28z"/>
	<path class="st0" d="M302.04,94.94c0,1.28,0.07,2.73,0.79,3.81h-6.64c-0.16-0.46-0.26-1.15-0.23-1.61h-0.07
		c-1.38,1.58-3.39,2.04-5.49,2.04c-3.29,0-6.02-1.58-6.02-5.16c0-5.39,6.31-5.2,9.63-5.82c0.89-0.16,1.78-0.43,1.78-1.51
		c0-1.15-1.08-1.58-2.14-1.58c-2.01,0-2.4,1.02-2.43,1.74h-6.05c0.1-2.4,1.28-3.81,2.96-4.6c1.64-0.79,3.81-0.99,5.82-0.99
		c8.15,0,8.09,3.39,8.09,6.67V94.94z M295.79,91.1c-0.79,0.4-1.68,0.62-2.56,0.82c-1.45,0.33-2.2,0.69-2.2,1.84
		c0,0.79,0.85,1.58,2.04,1.58c1.48,0,2.63-0.89,2.73-2.66V91.1z"/>
	<path class="st0" d="M322.59,98.76h-6.28v-1.87h-0.07c-0.82,1.08-1.81,2.3-5,2.3c-4.83,0-7.17-4.77-7.17-9.04
		c0-4.01,1.54-8.88,7.27-8.88c1.94,0,3.68,0.85,4.67,2.3h0.07v-8.29h6.51V98.76z M313.45,86c-2.33,0-2.86,2.2-2.86,4.21
		c0,2.04,0.53,4.24,2.86,4.24s2.86-2.2,2.86-4.24C316.31,88.2,315.79,86,313.45,86z"/>
	<path class="st0" d="M325.49,81.69h6.25v2.73h0.07c1.05-2.04,2.43-3.16,4.8-3.16c0.66,0,1.28,0.1,1.91,0.26v5.75
		c-0.66-0.23-1.25-0.43-2.57-0.43c-2.56,0-3.95,1.51-3.95,5.16v6.74h-6.51V81.69z"/>
	<path class="st0" d="M346.08,79.85h-6.51v-4.57h6.51V79.85z M339.57,81.69h6.51v17.07h-6.51V81.69z"/>
	<path class="st0" d="M366.89,98.76h-6.28v-1.87h-0.07c-0.82,1.08-1.81,2.3-5,2.3c-4.83,0-7.17-4.77-7.17-9.04
		c0-4.01,1.54-8.88,7.27-8.88c1.94,0,3.68,0.85,4.67,2.3h0.07v-8.29h6.51V98.76z M357.75,86c-2.33,0-2.86,2.2-2.86,4.21
		c0,2.04,0.53,4.24,2.86,4.24s2.86-2.2,2.86-4.24C360.61,88.2,360.09,86,357.75,86z"/>
</g>
</svg>
