<?xml version="1.0" encoding="utf-8"?>
<!-- Generator: Adobe Illustrator 27.1.0, SVG Export Plug-In . SVG Version: 6.00 Build 0)  -->
<svg version="1.1" id="Capa_1" xmlns="http://www.w3.org/2000/svg" xmlns:xlink="http://www.w3.org/1999/xlink" x="0px" y="0px"
	 viewBox="0 0 199.31 240.31" style="enable-background:new 0 0 199.31 240.31;" xml:space="preserve">
<style type="text/css">
	.st0{fill:#1D1D1B;}
	.st1{fill:#FFFFFF;}
	.st2{fill:#E20917;}
</style>
<g>
	<polygon class="st0" points="281,152.93 281,0.11 480.34,0.11 480.34,152.93 368.44,152.93 325.31,240.15 325.31,153.23 	"/>
	<path class="st1" d="M433.63,63.58c-0.12,0.28-0.16,0.53-0.16,0.81c0,1.01,0.93,2.06,2.06,2.06c0.81,0,1.67-0.52,2-1.34l9.89-25.03
		c0.12-0.28,0.16-0.52,0.16-0.8c0-1.02-0.89-2.08-2.06-2.08c-0.81,0-1.67,0.53-1.99,1.34L433.63,63.58z M422.76,62.07
		c-1.25,0.37-2.59,0.53-3.98,0.53c-2.46,0-3.92-1.42-3.92-3.94v-5.8c0-2.47,1.46-3.93,3.92-3.93c1.47,0,2.89,0.52,3.98,1.46V62.07z
		 M410.68,58.3c0,2.39,0.77,4.42,2.23,5.88c1.5,1.5,3.53,2.27,5.87,2.27c2.21,0,4.35-0.37,6.37-1.05c1.05-0.37,1.79-1.34,1.79-2.47
		V39.32c0-1.17-0.93-2.11-2.1-2.11c-1.18,0-2.08,0.94-2.08,2.11v6.81c-1.09-0.57-2.59-1.05-3.98-1.05c-2.34,0-4.41,0.73-5.91,2.23
		c-1.45,1.46-2.19,3.53-2.19,5.87V58.3z M390.88,63.58c-0.12,0.28-0.16,0.53-0.16,0.81c0,1.01,0.93,2.06,2.06,2.06
		c0.81,0,1.66-0.52,1.99-1.34l9.89-25.03c0.12-0.28,0.16-0.52,0.16-0.8c0-1.02-0.89-2.08-2.07-2.08c-0.81,0-1.67,0.53-1.98,1.34
		L390.88,63.58z M378.14,57.98c1.51,0.52,2.72,1.01,2.72,2.51c0,1.38-1.01,2.11-2.97,2.11c-1.78,0-3.12-0.37-4.21-0.93
		c-0.28-0.13-0.65-0.25-0.94-0.25c-1.13,0-2.02,0.98-2.02,2.03c0,0.81,0.48,1.5,1.26,1.87c1.5,0.69,3.45,1.13,5.84,1.13
		c4.34,0,7.23-2.8,7.23-6.36c0-2.97-1.64-4.79-4.31-5.69l-3.98-1.29c-0.84-0.28-1.66-0.94-1.66-1.99c0-1.38,1.1-2.19,2.76-2.19
		c1.34,0,3,0.32,4.01,0.81c0.28,0.13,0.69,0.2,0.97,0.2c1.1,0,1.94-0.89,1.94-1.94c0-0.85-0.53-1.58-1.34-1.9
		c-1.34-0.62-2.75-1.02-5.51-1.02c-4.06,0-7.01,2.56-7.01,6.13c0,3.03,1.7,4.74,3.89,5.55L378.14,57.98z M351.26,63.58
		c-0.12,0.28-0.16,0.53-0.16,0.81c0,1.01,0.94,2.06,2.07,2.06c0.81,0,1.66-0.52,1.99-1.34l9.9-25.03c0.12-0.28,0.16-0.52,0.16-0.8
		c0-1.02-0.89-2.08-2.06-2.08c-0.82,0-1.67,0.53-1.99,1.34L351.26,63.58z M333.17,53.88c0-3.41,1.38-4.95,3.94-4.95
		c2.59,0,3.97,1.58,3.97,4.95H333.17z M342.62,57.73c1.46,0,2.63-1.17,2.63-2.64v-1.91c0-2.35-0.81-4.37-2.27-5.84
		c-1.46-1.5-3.48-2.27-5.88-2.27c-2.35,0-4.38,0.77-5.88,2.27c-1.46,1.47-2.23,3.49-2.23,5.84v5.12c0,2.39,0.77,4.42,2.23,5.88
		c1.5,1.5,3.53,2.27,5.88,2.27c2.15,0,4.22-0.45,6.17-1.37c0.73-0.37,1.06-1.05,1.06-1.83c0-1.05-0.98-1.91-2-1.91
		c-0.29,0-0.57,0.08-0.85,0.2c-1.38,0.61-2.83,1.05-4.38,1.05c-1.38,0-2.43-0.49-3.12-1.38c-0.52-0.73-0.81-1.83-0.81-3.49H342.62z"
		/>
	<path class="st1" d="M423.04,105.69c-1.26,0.37-2.59,0.53-3.97,0.53c-2.48,0-3.94-1.43-3.94-3.94v-5.81c0-2.47,1.46-3.93,3.94-3.93
		c1.45,0,2.87,0.52,3.97,1.46V105.69z M410.95,101.92c0,2.39,0.77,4.42,2.23,5.88c1.49,1.5,3.52,2.27,5.88,2.27
		c2.19,0,4.34-0.36,6.36-1.06c1.06-0.36,1.79-1.34,1.79-2.47v-23.6c0-1.18-0.93-2.11-2.11-2.11c-1.16,0-2.06,0.93-2.06,2.11v6.81
		c-1.1-0.57-2.59-1.05-3.97-1.05c-2.36,0-4.42,0.73-5.93,2.23c-1.46,1.46-2.18,3.53-2.18,5.88V101.92z M400.89,107.96
		c0,1.18,0.97,2.11,2.1,2.11c1.19,0,2.08-0.93,2.08-2.11V90.8c0-1.18-0.89-2.11-2.08-2.11c-1.13,0-2.1,0.93-2.1,2.11V107.96z
		 M405.34,83.17c0-1.28-1.05-2.35-2.36-2.35c-1.29,0-2.34,1.06-2.34,2.35c0,1.31,1.05,2.36,2.34,2.36
		C404.29,85.53,405.34,84.48,405.34,83.17 M385.55,107.96c0,1.18,0.94,2.11,2.11,2.11c1.14,0,2.08-0.93,2.08-2.11V94.41
		c0-1.01,0.84-1.86,1.87-1.86c0.64,0,1.38,0.16,2.03,0.32c0.33,0.08,0.45,0.08,0.69,0.08c1.18,0,1.99-0.85,1.99-1.95
		c0-0.97-0.69-1.79-1.66-1.99c-1.01-0.2-2.02-0.32-3.04-0.32c-3.45,0-6.05,2.6-6.05,6.04V107.96z M375.04,105.69
		c-1.26,0.37-2.6,0.53-3.98,0.53c-2.47,0-3.93-1.43-3.93-3.94v-5.81c0-2.47,1.46-3.93,3.93-3.93c1.46,0,2.89,0.52,3.98,1.46V105.69z
		 M362.95,101.92c0,2.39,0.78,4.42,2.24,5.88c1.5,1.5,3.53,2.27,5.87,2.27c2.19,0,4.34-0.36,6.38-1.06
		c1.05-0.36,1.78-1.34,1.78-2.47v-23.6c0-1.18-0.93-2.11-2.12-2.11c-1.16,0-2.06,0.93-2.06,2.11v6.81c-1.1-0.57-2.6-1.05-3.98-1.05
		c-2.35,0-4.42,0.73-5.92,2.23c-1.46,1.46-2.2,3.53-2.2,5.88V101.92z M353.33,105.69c-1.3,0.32-2.8,0.53-4.18,0.53
		c-3.53,0-3.73-2.04-3.73-2.77c0-0.68,0.2-2.59,3.73-2.59h4.18V105.69z M357.52,95.59c0-3.62-2.47-6.9-7.02-6.9
		c-2.92,0-4.83,0.36-7.02,1.62c-0.69,0.4-1.02,1.13-1.02,1.87c0,1.01,0.9,1.82,1.99,1.82c0.37,0,0.81-0.16,1.14-0.36
		c1.43-0.85,2.48-1.1,4.39-1.1c2.11,0,3.36,1.33,3.36,3.04v1.41h-4.18c-2.47,0-4.42,0.61-5.8,1.79c-1.38,1.13-2.12,2.68-2.12,4.66
		c0,2,0.74,3.66,2.12,4.82c1.38,1.19,3.33,1.8,5.8,1.8c2.27,0,4.59-0.36,6.57-1.06c1.05-0.36,1.79-1.34,1.79-2.47V95.59z
		 M332,107.96c0,1.18,0.9,2.11,2.06,2.11c1.18,0,2.11-0.93,2.11-2.11v-11.6c0-4.39-3.28-7.67-7.66-7.67c-2.03,0-4.02,0.57-5.69,1.66
		c-1.26-1.05-2.96-1.66-4.91-1.66c-2.35,0-4.43,0.36-6.53,1.17c-1.01,0.41-1.7,1.38-1.7,2.48v15.61c0,1.18,0.93,2.11,2.11,2.11
		c1.14,0,2.07-0.93,2.07-2.11V93.12c1.3-0.37,2.19-0.57,3.65-0.57c1.79,0,3.33,0.61,3.33,2.96v12.45c0,1.18,0.93,2.11,2.06,2.11
		c1.18,0,2.11-0.93,2.11-2.11V93.6c1.01-0.64,2.23-1.05,3.49-1.05c1.91,0,3.49,1.58,3.49,3.49V107.96z"/>
</g>
<g>
	<rect x="23.64" class="st2" width="151.88" height="153.15"/>
	<polygon class="st1" points="52.19,51.59 49.13,61.24 39.08,61.37 47.23,67.23 44.28,76.69 52.19,70.88 60.21,76.56 57.15,67.12 
		65.16,61.12 55.3,61.24 	"/>
	<polygon class="st1" points="83.82,51.59 80.75,61.24 70.71,61.37 78.85,67.23 75.91,76.69 83.82,70.88 91.83,76.56 88.78,67.12 
		96.8,61.12 86.91,61.24 	"/>
	<polygon class="st1" points="115.57,51.59 112.51,61.24 102.48,61.37 110.62,67.23 107.68,76.69 115.57,70.88 123.6,76.56 
		120.53,67.12 128.56,61.12 118.71,61.24 	"/>
	<polygon class="st1" points="99.6,73.61 96.55,83.27 86.49,83.4 94.64,89.26 91.68,98.71 99.6,92.91 107.62,98.59 104.57,89.14 
		112.58,83.15 102.7,83.27 	"/>
	<polygon class="st1" points="67.92,73.61 64.85,83.27 54.82,83.4 62.95,89.26 60.01,98.71 67.92,92.91 75.92,98.59 72.86,89.14 
		80.88,83.15 71.03,83.27 	"/>
	<polygon class="st1" points="131.41,73.61 128.35,83.27 118.3,83.4 126.45,89.26 123.52,98.71 131.41,92.91 139.44,98.59 
		136.37,89.14 144.4,83.15 134.54,83.27 	"/>
	<polygon class="st1" points="147.3,51.59 144.25,61.24 134.2,61.37 142.34,67.23 139.4,76.69 147.3,70.88 155.31,76.56 
		152.25,67.12 160.27,61.12 150.42,61.24 	"/>
</g>
<rect x="286.15" y="0.15" class="st0" width="182" height="139"/>
</svg>
