<svg width="33" height="27" viewBox="0 0 33 27" fill="none" xmlns="http://www.w3.org/2000/svg">
<mask id="path-1-outside-1_42_23" maskUnits="userSpaceOnUse" x="-1.74846e-07" y="-3.49691e-06" width="34" height="27" fill="black">
<rect fill="white" x="-1.74846e-07" y="-3.49691e-06" width="34" height="27"/>
<path d="M31.936 12.528C32.48 12.528 32.928 12.976 32.928 13.52C32.928 14.064 32.48 14.512 31.936 14.512L4.416 14.512L14.208 24.304C14.4 24.496 14.528 24.752 14.528 25.04C14.528 25.616 14.08 26.064 13.504 26.064C13.184 26.064 12.928 25.936 12.736 25.712L1.28 14.288C1.056 14.096 0.96 13.776 0.96 13.52C0.96 13.264 1.056 12.976 1.28 12.752L12.736 1.328C12.928 1.104 13.184 0.975998 13.504 0.975998C14.08 0.975998 14.528 1.424 14.528 2C14.528 2.288 14.4 2.544 14.208 2.736L4.416 12.528L31.936 12.528Z"/>
</mask>
<path d="M31.936 12.528C32.48 12.528 32.928 12.976 32.928 13.52C32.928 14.064 32.48 14.512 31.936 14.512L4.416 14.512L14.208 24.304C14.4 24.496 14.528 24.752 14.528 25.04C14.528 25.616 14.08 26.064 13.504 26.064C13.184 26.064 12.928 25.936 12.736 25.712L1.28 14.288C1.056 14.096 0.96 13.776 0.96 13.52C0.96 13.264 1.056 12.976 1.28 12.752L12.736 1.328C12.928 1.104 13.184 0.975998 13.504 0.975998C14.08 0.975998 14.528 1.424 14.528 2C14.528 2.288 14.4 2.544 14.208 2.736L4.416 12.528L31.936 12.528Z" fill="black"/>
<path d="M4.416 14.512L4.416 13.912L2.96747 13.912L3.99173 14.9363L4.416 14.512ZM14.208 24.304L13.7837 24.7283L13.7837 24.7283L14.208 24.304ZM12.736 25.712L13.1915 25.3215L13.1763 25.3037L13.1597 25.2871L12.736 25.712ZM1.28 14.288L1.70367 13.8631L1.68765 13.8472L1.67047 13.8324L1.28 14.288ZM1.28 12.752L0.856329 12.3271L0.855735 12.3277L1.28 12.752ZM12.736 1.328L13.1597 1.75285L13.1763 1.73629L13.1916 1.71847L12.736 1.328ZM14.208 2.736L13.7837 2.31173L13.7837 2.31173L14.208 2.736ZM4.416 12.528L3.99173 12.1037L2.96747 13.128L4.416 13.128L4.416 12.528ZM31.936 13.128C32.1486 13.128 32.328 13.3074 32.328 13.52L33.528 13.52C33.528 12.6446 32.8114 11.928 31.936 11.928L31.936 13.128ZM32.328 13.52C32.328 13.7326 32.1486 13.912 31.936 13.912L31.936 15.112C32.8114 15.112 33.528 14.3954 33.528 13.52L32.328 13.52ZM31.936 13.912L4.416 13.912L4.416 15.112L31.936 15.112L31.936 13.912ZM3.99173 14.9363L13.7837 24.7283L14.6323 23.8797L4.84026 14.0877L3.99173 14.9363ZM13.7837 24.7283C13.8832 24.8278 13.928 24.9374 13.928 25.04L15.128 25.04C15.128 24.5666 14.9168 24.1642 14.6323 23.8797L13.7837 24.7283ZM13.928 25.04C13.928 25.2846 13.7486 25.464 13.504 25.464L13.504 26.664C14.4114 26.664 15.128 25.9474 15.128 25.04L13.928 25.04ZM13.504 25.464C13.3655 25.464 13.2738 25.4174 13.1915 25.3215L12.2804 26.1025C12.5822 26.4546 13.0025 26.664 13.504 26.664L13.504 25.464ZM13.1597 25.2871L1.70367 13.8631L0.856329 14.7129L12.3123 26.1369L13.1597 25.2871ZM1.67047 13.8324C1.65067 13.8155 1.62132 13.7788 1.59643 13.7137C1.57156 13.6487 1.56 13.5775 1.56 13.52L0.36 13.52C0.36 13.889 0.491676 14.4025 0.889525 14.7436L1.67047 13.8324ZM1.56 13.52C1.56 13.4077 1.60323 13.2773 1.70426 13.1763L0.855735 12.3277C0.508769 12.6747 0.36 13.1203 0.36 13.52L1.56 13.52ZM1.70367 13.1769L13.1597 1.75285L12.3123 0.903141L0.85633 12.3271L1.70367 13.1769ZM13.1916 1.71847C13.2738 1.62257 13.3655 1.576 13.504 1.576L13.504 0.375998C13.0025 0.375998 12.5822 0.585423 12.2804 0.937521L13.1916 1.71847ZM13.504 1.576C13.7486 1.576 13.928 1.75537 13.928 2L15.128 2C15.128 1.09263 14.4114 0.375998 13.504 0.375998L13.504 1.576ZM13.928 2C13.928 2.10264 13.8832 2.21224 13.7837 2.31173L14.6323 3.16026C14.9168 2.87575 15.128 2.47336 15.128 2L13.928 2ZM13.7837 2.31173L3.99173 12.1037L4.84026 12.9523L14.6323 3.16026L13.7837 2.31173ZM4.416 13.128L31.936 13.128L31.936 11.928L4.416 11.928L4.416 13.128Z" fill="black" mask="url(#path-1-outside-1_42_23)"/>
</svg>
