<svg width="33" height="27" viewBox="0 0 33 27" fill="none" xmlns="http://www.w3.org/2000/svg">
<mask id="path-1-outside-1_42_23" maskUnits="userSpaceOnUse" x="-1" y="0" width="34" height="27" fill="black">
<rect fill="white" x="-1" width="34" height="27"/>
<path d="M1.064 14.472C0.52 14.472 0.0720005 14.024 0.0720005 13.48C0.0720005 12.936 0.52 12.488 1.064 12.488L28.584 12.488L18.792 2.696C18.6 2.504 18.472 2.248 18.472 1.96C18.472 1.384 18.92 0.935999 19.496 0.935999C19.816 0.935999 20.072 1.064 20.264 1.288L31.72 12.712C31.944 12.904 32.04 13.224 32.04 13.48C32.04 13.736 31.944 14.024 31.72 14.248L20.264 25.672C20.072 25.896 19.816 26.024 19.496 26.024C18.92 26.024 18.472 25.576 18.472 25C18.472 24.712 18.6 24.456 18.792 24.264L28.584 14.472L1.064 14.472Z"/>
</mask>
<path d="M1.064 14.472C0.52 14.472 0.0720005 14.024 0.0720005 13.48C0.0720005 12.936 0.52 12.488 1.064 12.488L28.584 12.488L18.792 2.696C18.6 2.504 18.472 2.248 18.472 1.96C18.472 1.384 18.92 0.935999 19.496 0.935999C19.816 0.935999 20.072 1.064 20.264 1.288L31.72 12.712C31.944 12.904 32.04 13.224 32.04 13.48C32.04 13.736 31.944 14.024 31.72 14.248L20.264 25.672C20.072 25.896 19.816 26.024 19.496 26.024C18.92 26.024 18.472 25.576 18.472 25C18.472 24.712 18.6 24.456 18.792 24.264L28.584 14.472L1.064 14.472Z" fill="black"/>
<path d="M28.584 12.488V13.088L30.0325 13.088L29.0083 12.0637L28.584 12.488ZM18.792 2.696L19.2163 2.27174L19.2163 2.27173L18.792 2.696ZM20.264 1.288L19.8085 1.67848L19.8237 1.69629L19.8403 1.71286L20.264 1.288ZM31.72 12.712L31.2963 13.1369L31.3123 13.1528L31.3295 13.1676L31.72 12.712ZM31.72 14.248L32.1437 14.6729L32.1443 14.6723L31.72 14.248ZM20.264 25.672L19.8403 25.2471L19.8237 25.2637L19.8084 25.2815L20.264 25.672ZM18.792 24.264L19.2163 24.6883L19.2163 24.6883L18.792 24.264ZM28.584 14.472L29.0083 14.8963L30.0325 13.872L28.584 13.872V14.472ZM1.064 13.872C0.851371 13.872 0.672001 13.6926 0.672001 13.48L-0.528 13.48C-0.528 14.3554 0.18863 15.072 1.064 15.072V13.872ZM0.672001 13.48C0.672001 13.2674 0.851372 13.088 1.064 13.088V11.888C0.188629 11.888 -0.528 12.6046 -0.528 13.48L0.672001 13.48ZM1.064 13.088L28.584 13.088V11.888L1.064 11.888V13.088ZM29.0083 12.0637L19.2163 2.27174L18.3677 3.12026L28.1597 12.9123L29.0083 12.0637ZM19.2163 2.27173C19.1168 2.17224 19.072 2.06264 19.072 1.96H17.872C17.872 2.43336 18.0832 2.83576 18.3677 3.12027L19.2163 2.27173ZM19.072 1.96C19.072 1.71537 19.2514 1.536 19.496 1.536V0.335999C18.5886 0.335999 17.872 1.05263 17.872 1.96H19.072ZM19.496 1.536C19.6345 1.536 19.7262 1.58257 19.8085 1.67848L20.7196 0.897521C20.4178 0.545424 19.9975 0.335999 19.496 0.335999V1.536ZM19.8403 1.71286L31.2963 13.1369L32.1437 12.2871L20.6877 0.863141L19.8403 1.71286ZM31.3295 13.1676C31.3493 13.1845 31.3787 13.2212 31.4036 13.2863C31.4284 13.3513 31.44 13.4225 31.44 13.48H32.64C32.64 13.111 32.5083 12.5975 32.1105 12.2564L31.3295 13.1676ZM31.44 13.48C31.44 13.5923 31.3968 13.7227 31.2957 13.8237L32.1443 14.6723C32.4912 14.3253 32.64 13.8797 32.64 13.48H31.44ZM31.2963 13.8231L19.8403 25.2471L20.6877 26.0969L32.1437 14.6729L31.2963 13.8231ZM19.8084 25.2815C19.7262 25.3774 19.6345 25.424 19.496 25.424V26.624C19.9975 26.624 20.4178 26.4146 20.7196 26.0625L19.8084 25.2815ZM19.496 25.424C19.2514 25.424 19.072 25.2446 19.072 25H17.872C17.872 25.9074 18.5886 26.624 19.496 26.624V25.424ZM19.072 25C19.072 24.8974 19.1168 24.7878 19.2163 24.6883L18.3677 23.8397C18.0832 24.1242 17.872 24.5266 17.872 25H19.072ZM19.2163 24.6883L29.0083 14.8963L28.1597 14.0477L18.3677 23.8397L19.2163 24.6883ZM28.584 13.872L1.064 13.872V15.072L28.584 15.072V13.872Z" fill="black" mask="url(#path-1-outside-1_42_23)"/>
</svg>
