<svg width="33" height="27" viewBox="0 0 33 27" fill="none" xmlns="http://www.w3.org/2000/svg">
<path d="M1.064 14.472C0.52 14.472 0.0720005 14.024 0.0720005 13.48C0.0720005 12.936 0.52 12.488 1.064 12.488L28.584 12.488L18.792 2.696C18.6 2.504 18.472 2.248 18.472 1.96C18.472 1.384 18.92 0.935999 19.496 0.935999C19.816 0.935999 20.072 1.064 20.264 1.288L31.72 12.712C31.944 12.904 32.04 13.224 32.04 13.48C32.04 13.736 31.944 14.024 31.72 14.248L20.264 25.672C20.072 25.896 19.816 26.024 19.496 26.024C18.92 26.024 18.472 25.576 18.472 25C18.472 24.712 18.6 24.456 18.792 24.264L28.584 14.472L1.064 14.472Z" fill="black"/>
</svg>
