<svg width="33" height="27" viewBox="0 0 33 27" fill="none" xmlns="http://www.w3.org/2000/svg">
<path d="M31.936 12.528C32.48 12.528 32.928 12.976 32.928 13.52C32.928 14.064 32.48 14.512 31.936 14.512L4.416 14.512L14.208 24.304C14.4 24.496 14.528 24.752 14.528 25.04C14.528 25.616 14.08 26.064 13.504 26.064C13.184 26.064 12.928 25.936 12.736 25.712L1.28 14.288C1.056 14.096 0.96 13.776 0.96 13.52C0.96 13.264 1.056 12.976 1.28 12.752L12.736 1.328C12.928 1.104 13.184 0.975998 13.504 0.975998C14.08 0.975998 14.528 1.424 14.528 2C14.528 2.288 14.4 2.544 14.208 2.736L4.416 12.528L31.936 12.528Z" fill="black"/>
</svg>
